<svg width="24" height="25" viewBox="0 0 24 25" fill="none" xmlns="http://www.w3.org/2000/svg">
<path d="M17.7545 14.5002C18.9966 14.5002 20.0034 15.507 20.0034 16.7491V17.3245C20.0034 18.2188 19.6838 19.0836 19.1023 19.763C17.5329 21.5965 15.1457 22.5013 12.0004 22.5013C8.8545 22.5013 6.46849 21.5962 4.90219 19.7619C4.32242 19.083 4.00391 18.2195 4.00391 17.3267V16.7491C4.00391 15.507 5.01076 14.5002 6.25278 14.5002H17.7545ZM17.7545 16.0002H6.25278C5.83919 16.0002 5.50391 16.3355 5.50391 16.7491V17.3267C5.50391 17.8624 5.69502 18.3805 6.04287 18.7878C7.29618 20.2555 9.26206 21.0013 12.0004 21.0013C14.7387 21.0013 16.7063 20.2555 17.9627 18.7876C18.3117 18.3799 18.5034 17.861 18.5034 17.3245V16.7491C18.5034 16.3355 18.1681 16.0002 17.7545 16.0002ZM12.0004 2.50488C14.7618 2.50488 17.0004 4.74346 17.0004 7.50488C17.0004 10.2663 14.7618 12.5049 12.0004 12.5049C9.23894 12.5049 7.00036 10.2663 7.00036 7.50488C7.00036 4.74346 9.23894 2.50488 12.0004 2.50488ZM12.0004 4.00488C10.0674 4.00488 8.50036 5.57189 8.50036 7.50488C8.50036 9.43788 10.0674 11.0049 12.0004 11.0049C13.9334 11.0049 15.5004 9.43788 15.5004 7.50488C15.5004 5.57189 13.9334 4.00488 12.0004 4.00488Z" fill="white"/>
</svg>
