<svg width="177" height="176" viewBox="0 0 177 176" fill="none" xmlns="http://www.w3.org/2000/svg">
<path d="M155.564 0.234375H21.3282C9.99269 0.234375 0.803467 9.4236 0.803467 20.7591V154.995C0.803467 166.33 9.99269 175.52 21.3282 175.52H155.564C166.899 175.52 176.089 166.33 176.089 154.995V20.7591C176.089 9.4236 166.899 0.234375 155.564 0.234375Z" fill="#470637" fill-opacity="0.85"/>
<path d="M71.2757 89.4299L93.5122 125.533C93.9514 126.12 93.8037 126.489 93.073 126.633H79.5349C78.7262 126.633 78.1762 126.342 77.8847 125.75C75.2411 121.202 72.5811 116.654 69.9047 112.101C67.2242 107.553 64.5272 102.894 61.8139 98.1242H61.703C59.2072 102.746 56.6745 107.368 54.1089 111.995C51.5392 116.617 48.9695 121.206 46.4039 125.755C46.1083 126.342 45.6691 126.637 45.0821 126.637H32.2049C31.8396 126.637 31.6384 126.51 31.6015 126.251C31.5645 125.997 31.622 125.755 31.7657 125.537L53.3413 90.3124L32.2049 55.3096C31.8396 54.6487 32.0243 54.3203 32.755 54.3203H46.1822C46.7692 54.3203 47.2085 54.5789 47.504 55.092C49.9259 59.7142 52.4587 64.2666 55.0982 68.741C57.7418 73.2195 60.3073 77.7677 62.8031 82.3899H62.914C65.3359 77.7677 67.8112 73.2195 70.3439 68.741C72.8767 64.2666 75.4258 59.7511 77.9955 55.2029C78.2172 54.6159 78.6564 54.3203 79.3173 54.3203H91.6445C92.3054 54.3203 92.449 54.6898 92.0837 55.4204L71.2799 89.434L71.2757 89.4299Z" fill="#FF60F6"/>
<path d="M123.782 127.738C119.821 127.738 116.114 127.167 112.666 126.03C109.214 124.893 106.225 123.169 103.697 120.858C101.164 118.547 99.1852 115.648 97.7526 112.163C96.32 108.678 95.6057 104.623 95.6057 100C95.6057 96.0391 96.32 92.2954 97.7526 88.7734C99.1852 85.2514 101.258 82.2055 103.972 79.6358C106.685 77.0702 109.969 75.03 113.823 73.5276C117.678 72.0252 122.025 71.2699 126.869 71.2699C127.674 71.2699 128.429 71.2904 129.127 71.3233C129.825 71.3602 130.65 71.4505 131.602 71.5983V49.0334C131.602 48.5203 131.824 48.2617 132.263 48.2617H144.262C144.627 48.2617 144.812 48.4834 144.812 48.9226V115.406C144.812 116.506 144.849 117.701 144.922 118.982C144.996 120.267 145.103 121.424 145.251 122.45C145.251 122.963 145.029 123.296 144.59 123.44C140.994 124.979 137.451 126.083 133.966 126.74C130.481 127.401 127.087 127.729 123.786 127.729L123.782 127.738ZM131.598 83.1578C130.276 82.6447 128.552 82.3861 126.426 82.3861C124.004 82.3861 121.746 82.772 119.657 83.5437C117.567 84.3154 115.749 85.4156 114.209 86.8482C112.67 88.2808 111.459 90.0582 110.576 92.1846C109.694 94.3151 109.255 96.6959 109.255 99.3395C109.255 102.348 109.677 104.918 110.519 107.044C111.36 109.175 112.502 110.936 113.93 112.328C115.363 113.723 117.05 114.733 118.992 115.353C120.933 115.977 123.01 116.289 125.211 116.289C126.311 116.289 127.394 116.235 128.458 116.125C129.521 116.014 130.568 115.776 131.594 115.41V83.1578H131.598Z" fill="#FF60F6"/>
</svg>
