<svg width="177" height="141" viewBox="0 0 177 141" fill="none" xmlns="http://www.w3.org/2000/svg">
<path opacity="0.7" d="M176.089 65.8482V75.3923C176.089 75.3923 158.4 74.4508 158.167 99.9296V122.501C158.167 132.361 150.173 140.356 140.312 140.356H36.5806C26.7199 140.356 18.7255 132.361 18.7255 122.501V99.9421C18.4922 74.4633 0.803711 75.4048 0.803711 75.4048V65.8607C0.803711 65.8607 18.4922 66.8022 18.7255 41.3276V18.7692C18.7255 8.90846 26.7199 0.914062 36.5806 0.914062H140.312C150.173 0.914062 158.167 8.90846 158.167 18.7692V41.3151C158.4 66.7897 176.089 65.8482 176.089 65.8482Z" fill="#8512FB"/>
<path d="M114.458 79.3674C113.221 76.7637 111.438 74.5932 109.109 72.8519C106.781 71.1105 104.014 70.0107 100.811 69.5566C104.014 68.9942 106.697 67.8944 108.863 66.2614C111.03 64.6242 112.638 62.6579 113.696 60.3541C114.75 58.0504 115.279 55.58 115.279 52.9429C115.279 48.652 114.425 44.961 112.713 41.8658C111.001 38.7705 108.418 36.3793 104.96 34.6921C101.502 33.0049 97.2072 32.1592 92.0748 32.1592H60.793V108.854H93.0038C97.6988 108.854 101.811 107.991 105.343 106.271C108.872 104.55 111.584 102.105 113.479 98.9388C115.371 95.7727 116.32 92.1151 116.32 87.9658V87.8075C116.32 84.783 115.7 81.9711 114.462 79.3674H114.458ZM90.0544 42.1241C94.7119 42.1241 98.2071 43.0739 100.536 44.9735C102.865 46.8732 104.031 49.7393 104.031 53.572C104.031 57.4046 102.985 59.9917 100.89 61.8538C98.7945 63.7202 95.695 64.6492 91.5833 64.6492H71.8743V42.1241H90.0544ZM105.068 87.016C105.068 90.7778 103.777 93.6981 101.194 95.7727C98.6112 97.8474 94.4952 98.8847 88.8546 98.8847H71.8743V74.3558H91.5833C94.7119 74.3558 97.2781 74.8557 99.2819 75.8596C101.282 76.8636 102.748 78.2967 103.677 80.1589C104.606 82.0252 105.068 84.254 105.068 86.8577V87.016Z" fill="white"/>
</svg>
