<svg width="24" height="25" viewBox="0 0 24 25" fill="none" xmlns="http://www.w3.org/2000/svg">
<path d="M18.6768 2.89254C18.8754 2.52903 19.3311 2.39532 19.6946 2.5939C20.0136 2.76818 20.4492 3.1032 20.8784 3.62439C21.3104 4.14904 21.6427 4.76809 21.8345 5.48364C22.1139 6.52663 22.0292 7.5192 21.719 8.40088C21.6106 8.7093 21.4979 8.93948 21.4122 9.08029C21.1969 9.43414 20.7355 9.54644 20.3816 9.33111C20.0573 9.13373 19.9359 8.72958 20.0838 8.39103L20.1308 8.30054C20.1651 8.24413 20.2325 8.10649 20.304 7.90315C20.5205 7.2876 20.5796 6.596 20.3856 5.87181C20.2518 5.37257 20.0213 4.94331 19.7204 4.57787C19.4263 4.22064 19.1386 3.99943 18.9755 3.91029C18.6119 3.71171 18.4782 3.25605 18.6768 2.89254ZM14.6887 15.7792C14.5815 15.3791 14.1702 15.1417 13.7701 15.2489L11.8383 15.7665L11.7418 15.7994C11.401 15.9422 11.2097 16.3183 11.308 16.685C11.4152 17.0851 11.8264 17.3226 12.2265 17.2154L14.1583 16.6978L14.2549 16.6648C14.5956 16.5221 14.7869 16.146 14.6887 15.7792ZM15.095 6.1607C14.7732 4.96011 13.5389 4.24791 12.3384 4.57017L7.7461 5.80293C6.54647 6.12496 5.83472 7.35817 6.15602 8.558L8.9105 18.8443C9.2319 20.0445 10.4654 20.7571 11.6657 20.4358L16.2614 19.2057C17.4621 18.8844 18.1747 17.6503 17.8529 16.4497L15.095 6.1607ZM12.7273 6.01888C13.1274 5.91146 13.5389 6.14886 13.6462 6.54905L16.4041 16.8381C16.5114 17.2382 16.2738 17.6496 15.8736 17.7567L11.2778 18.9868C10.8777 19.0939 10.4666 18.8564 10.3594 18.4563L7.60497 8.16999C7.49787 7.77005 7.73512 7.35898 8.135 7.25164L12.7273 6.01888ZM18.5503 4.80176C18.2208 4.55075 17.7502 4.61436 17.4992 4.94385C17.2482 5.27334 17.3118 5.74393 17.6413 5.99495L17.6742 6.02298C17.7141 6.05951 17.7728 6.1207 17.8323 6.19917C17.9113 6.30336 17.9676 6.41035 17.995 6.5124C18.0355 6.66375 18.0252 6.85166 17.9782 7.03438C17.9732 7.05369 17.9685 7.0707 17.9643 7.08506L17.9143 7.23347C17.8187 7.59031 17.9992 7.97178 18.3494 8.11844C18.7315 8.27843 19.1709 8.09841 19.3309 7.71634C19.3457 7.68098 19.3622 7.63712 19.3792 7.58546L19.431 7.40777C19.5368 6.99624 19.5608 6.56053 19.4439 6.12409C19.3619 5.81825 19.2164 5.54202 19.0278 5.29312C18.8564 5.06703 18.6837 4.90339 18.5503 4.80176ZM2.53799 15.9111C2.74509 15.5524 3.20378 15.4295 3.5625 15.6366C3.89133 15.8265 4.02201 16.2277 3.88199 16.5696L3.78683 16.7627C3.7561 16.8315 3.71819 16.9267 3.67881 17.0451C3.47337 17.6631 3.42166 18.3623 3.61885 19.0982C3.753 19.5989 3.98215 20.0335 4.28048 20.4067C4.53801 20.7289 4.79061 20.946 4.95977 21.0588L5.02693 21.1008C5.38556 21.308 5.50827 21.7668 5.30101 22.1254C5.09374 22.484 4.635 22.6068 4.27637 22.3995C3.96212 22.2179 3.53223 21.873 3.1088 21.3433C2.6862 20.8146 2.36013 20.1961 2.16997 19.4865C1.89008 18.4419 1.96341 17.4503 2.2554 16.5719C2.35508 16.2721 2.45882 16.0483 2.53799 15.9111ZM5.65306 16.8509C5.27041 16.6923 4.83165 16.874 4.67306 17.2566C4.65851 17.2917 4.64234 17.3353 4.62561 17.3866L4.57481 17.5629C4.47052 17.9735 4.44739 18.4086 4.56421 18.8447C4.6458 19.1491 4.79 19.4246 4.97684 19.6731C5.14723 19.8998 5.31896 20.0641 5.45159 20.1663C5.77976 20.419 6.25068 20.3579 6.50342 20.0297C6.75617 19.7015 6.69503 19.2306 6.36686 18.9779L6.33391 18.9495C6.29401 18.9126 6.23532 18.8509 6.17587 18.7718C6.09704 18.667 6.04065 18.5593 6.0131 18.4564C5.97217 18.3037 5.9822 18.1151 6.02865 17.9322C6.03351 17.9131 6.03814 17.8962 6.04227 17.882L6.09141 17.7343C6.18569 17.3771 6.00383 16.9963 5.65306 16.8509Z" fill="white"/>
</svg>
