<svg width="25" height="25" viewBox="0 0 25 25" fill="none" xmlns="http://www.w3.org/2000/svg">
<g clip-path="url(#clip0_88_56)">
<path d="M12.5 14.75C13.7426 14.75 14.75 13.7426 14.75 12.5C14.75 11.2574 13.7426 10.25 12.5 10.25C11.2574 10.25 10.25 11.2574 10.25 12.5C10.25 13.7426 11.2574 14.75 12.5 14.75Z" fill="white"/>
<path d="M20 2C20.7956 2 21.5587 2.31607 22.1213 2.87868C22.6839 3.44129 23 4.20435 23 5V20C23 20.7956 22.6839 21.5587 22.1213 22.1213C21.5587 22.6839 20.7956 23 20 23H5C4.20435 23 3.44129 22.6839 2.87868 22.1213C2.31607 21.5587 2 20.7956 2 20V5C2 4.20435 2.31607 3.44129 2.87868 2.87868C3.44129 2.31607 4.20435 2 5 2H20ZM5 0.5C3.80653 0.5 2.66193 0.974106 1.81802 1.81802C0.974106 2.66193 0.5 3.80653 0.5 5L0.5 20C0.5 21.1935 0.974106 22.3381 1.81802 23.182C2.66193 24.0259 3.80653 24.5 5 24.5H20C21.1935 24.5 22.3381 24.0259 23.182 23.182C24.0259 22.3381 24.5 21.1935 24.5 20V5C24.5 3.80653 24.0259 2.66193 23.182 1.81802C22.3381 0.974106 21.1935 0.5 20 0.5L5 0.5Z" fill="white"/>
</g>
<defs>
<clipPath id="clip0_88_56">
<rect width="24" height="24" fill="white" transform="translate(0.5 0.5)"/>
</clipPath>
</defs>
</svg>
