<svg width="25" height="25" viewBox="0 0 25 25" fill="none" xmlns="http://www.w3.org/2000/svg">
<g clip-path="url(#clip0_88_77)">
<path d="M20 2C20.7956 2 21.5587 2.31607 22.1213 2.87868C22.6839 3.44129 23 4.20435 23 5V20C23 20.7956 22.6839 21.5587 22.1213 22.1213C21.5587 22.6839 20.7956 23 20 23H5C4.20435 23 3.44129 22.6839 2.87868 22.1213C2.31607 21.5587 2 20.7956 2 20V5C2 4.20435 2.31607 3.44129 2.87868 2.87868C3.44129 2.31607 4.20435 2 5 2H20ZM5 0.5C3.80653 0.5 2.66193 0.974106 1.81802 1.81802C0.974106 2.66193 0.5 3.80653 0.5 5L0.5 20C0.5 21.1935 0.974106 22.3381 1.81802 23.182C2.66193 24.0259 3.80653 24.5 5 24.5H20C21.1935 24.5 22.3381 24.0259 23.182 23.182C24.0259 22.3381 24.5 21.1935 24.5 20V5C24.5 3.80653 24.0259 2.66193 23.182 1.81802C22.3381 0.974106 21.1935 0.5 20 0.5L5 0.5Z" fill="white"/>
<path d="M8.75 6.5C8.75 7.09674 8.51295 7.66903 8.09099 8.09099C7.66903 8.51295 7.09674 8.75 6.5 8.75C5.90326 8.75 5.33097 8.51295 4.90901 8.09099C4.48705 7.66903 4.25 7.09674 4.25 6.5C4.25 5.90326 4.48705 5.33097 4.90901 4.90901C5.33097 4.48705 5.90326 4.25 6.5 4.25C7.09674 4.25 7.66903 4.48705 8.09099 4.90901C8.51295 5.33097 8.75 5.90326 8.75 6.5ZM20.75 6.5C20.75 7.09674 20.5129 7.66903 20.091 8.09099C19.669 8.51295 19.0967 8.75 18.5 8.75C17.9033 8.75 17.331 8.51295 16.909 8.09099C16.4871 7.66903 16.25 7.09674 16.25 6.5C16.25 5.90326 16.4871 5.33097 16.909 4.90901C17.331 4.48705 17.9033 4.25 18.5 4.25C19.0967 4.25 19.669 4.48705 20.091 4.90901C20.5129 5.33097 20.75 5.90326 20.75 6.5ZM20.75 18.5C20.75 19.0967 20.5129 19.669 20.091 20.091C19.669 20.5129 19.0967 20.75 18.5 20.75C17.9033 20.75 17.331 20.5129 16.909 20.091C16.4871 19.669 16.25 19.0967 16.25 18.5C16.25 17.9033 16.4871 17.331 16.909 16.909C17.331 16.4871 17.9033 16.25 18.5 16.25C19.0967 16.25 19.669 16.4871 20.091 16.909C20.5129 17.331 20.75 17.9033 20.75 18.5ZM8.75 18.5C8.75 19.0967 8.51295 19.669 8.09099 20.091C7.66903 20.5129 7.09674 20.75 6.5 20.75C5.90326 20.75 5.33097 20.5129 4.90901 20.091C4.48705 19.669 4.25 19.0967 4.25 18.5C4.25 17.9033 4.48705 17.331 4.90901 16.909C5.33097 16.4871 5.90326 16.25 6.5 16.25C7.09674 16.25 7.66903 16.4871 8.09099 16.909C8.51295 17.331 8.75 17.9033 8.75 18.5Z" fill="white"/>
</g>
<defs>
<clipPath id="clip0_88_77">
<rect width="24" height="24" fill="white" transform="translate(0.5 0.5)"/>
</clipPath>
</defs>
</svg>
