<svg width="120" height="176" viewBox="0 0 120 176" fill="none" xmlns="http://www.w3.org/2000/svg">
<g opacity="0.85">
<path d="M60.3644 117.038V146.322C60.3644 154.41 57.0878 161.73 51.7854 167.028C46.5705 172.243 39.3963 175.503 31.4593 175.603H30.2421C29.5001 175.603 28.7664 175.573 28.0369 175.523C27.9994 175.523 27.9619 175.519 27.9244 175.515C27.7493 175.503 27.57 175.486 27.395 175.469C27.0406 175.436 26.6905 175.394 26.3403 175.348C26.1652 175.328 25.9901 175.302 25.8192 175.273C25.5316 175.227 25.2398 175.182 24.9563 175.127C24.3811 175.023 23.8141 174.902 23.2555 174.765C22.9721 174.694 22.697 174.619 22.4177 174.544C22.2843 174.51 22.1509 174.473 22.0216 174.431C21.6256 174.319 21.2379 174.194 20.8503 174.064C9.28659 170.15 0.961914 159.208 0.961914 146.322L1.42046 141.137C1.50383 140.657 1.60388 140.182 1.71226 139.707L3.26298 134.921C3.45056 134.484 3.64232 134.054 3.85075 133.625C4.05501 133.2 4.27178 132.779 4.49688 132.362C4.72198 131.949 4.95543 131.541 5.20137 131.136C5.44732 130.736 5.7016 130.34 5.96422 129.948C6.09345 129.752 6.23101 129.561 6.36441 129.369C6.63537 128.985 6.91883 128.61 7.20647 128.243C7.64417 127.689 8.09854 127.151 8.5696 126.63C8.728 126.455 8.88641 126.288 9.04898 126.117C9.21156 125.946 9.37413 125.78 9.54088 125.613C9.8702 125.284 10.2079 124.963 10.5538 124.642C11.0708 124.171 11.6085 123.72 12.1588 123.283C12.3422 123.141 12.5298 122.999 12.7215 122.853C13.0967 122.574 13.476 122.303 13.8637 122.036C14.4515 121.644 15.0518 121.269 15.6645 120.915C16.0731 120.681 16.4858 120.456 16.9068 120.24C18.4408 119.456 20.0582 118.801 21.7382 118.293C22.0675 118.193 22.3968 118.097 22.7303 118.009C23.7599 117.738 24.8104 117.522 25.8818 117.363C26.307 117.297 26.7322 117.242 27.1615 117.196L27.3116 117.184C27.766 117.138 28.2245 117.105 28.6831 117.08C29.2 117.051 29.721 117.038 30.2421 117.038H60.3602H60.3644Z" fill="#00CF7F"/>
<path d="M119.558 29.5976C119.558 37.6846 116.282 45.0047 110.979 50.3071C105.677 55.6096 98.357 58.8819 90.2741 58.8819H60.156V0.317383H90.2741C106.444 0.317383 119.558 13.4276 119.558 29.5976Z" fill="#FF7361"/>
<path d="M60.3644 0.317383V58.8819H30.2421C14.0721 58.8819 0.961914 45.7717 0.961914 29.5976C0.961914 21.5105 4.23843 14.1905 9.53671 8.89218C14.835 3.59389 22.155 0.317383 30.2421 0.317383H60.3644Z" fill="#FF4D12"/>
<path d="M60.3644 58.6777V117.246H30.2421C14.0721 117.246 0.961914 104.136 0.961914 87.9621C0.961914 79.875 4.23843 72.555 9.53671 67.2525C14.835 61.9543 22.155 58.6777 30.2421 58.6777H60.3644Z" fill="#B659FF"/>
<path d="M118.725 87.9621C118.725 71.7888 105.614 58.6777 89.4404 58.6777C73.2671 58.6777 60.156 71.7888 60.156 87.9621C60.156 104.135 73.2671 117.246 89.4404 117.246C105.614 117.246 118.725 104.135 118.725 87.9621Z" fill="#00BCFF"/>
</g>
</svg>
