<svg width="148" height="103" viewBox="0 0 148 103" fill="none" xmlns="http://www.w3.org/2000/svg">
<path d="M21.3936 101.741L22.6503 102.224C22.7034 102.083 28.0691 88.1249 30.2634 83.9841C35.9856 73.1918 42.4103 64.2871 49.1779 56.9416C50.0979 57.1847 51.6841 57.5347 53.9581 57.8086C54.8382 59.2757 57.6387 63.1318 63.3567 64.4569C71.3533 66.3175 81.4388 62.5031 93.3355 53.124L93.4478 53.031L93.5276 52.973L94.133 52.4943L93.4235 51.9718C93.3939 51.9478 93.3158 51.8926 93.1988 51.8099L93.1741 51.7899L93.1548 51.7784C91.2391 50.4326 79.9099 42.9461 68.5273 45.2373C62.5217 46.4451 57.5717 50.1994 53.8062 56.3922C52.2775 56.2034 51.0889 55.9838 50.2475 55.8002C67.5364 37.538 86.9012 29.2386 102.39 25.5488C107.003 31.5429 112.595 34.9097 119.041 35.5447C132.795 36.901 145.678 25.5715 147.282 24.1034C147.282 24.1034 147.377 24.0122 147.381 24.0117L147.488 23.9103L148.003 23.4275L147.662 23.1512L147.363 22.9248L147.085 22.6872C134.19 12.3547 123.209 8.42821 114.438 11.026C104.839 13.8726 101.62 23.4512 101.487 23.8582L101.38 24.181L101.299 24.4018C90.1146 27.1197 79.8868 31.4775 70.355 37.4435C71.638 35.8779 72.8422 34.2074 73.9671 32.4685C80.0168 30.208 84.257 26.5365 86.5654 21.5389C90.7957 12.3882 87.0983 2.16944 86.9409 1.74305L86.6647 0.999232L85.9736 1.39191C76.3977 6.84749 70.9535 13.0162 69.7895 19.7199C69.5242 21.252 69.5022 22.6909 69.6394 24.0094C70.058 28.032 71.9356 30.9224 72.7026 31.954C71.1275 34.3587 69.7992 37.0089 67.9166 39.021C66.9533 39.6634 65.9998 40.3138 65.0577 40.9856C59.2204 45.1576 53.7761 49.98 48.7246 55.4075C48.7014 55.4009 48.6825 55.3938 48.6781 55.3943L48.6396 55.5022C46.3848 57.9325 44.2101 60.481 42.1164 63.1566C43.3868 59.5592 44.2161 55.5016 44.4464 49.8981C49.5187 46.8854 52.8086 42.5493 54.2241 37.0031C58.1434 21.65 46.6329 2.39067 46.1418 1.57885L45.711 0.869181L45.1265 1.41793L44.8682 1.67071L44.539 1.98056C35.6858 10.4738 31.4004 19.2688 31.8115 28.1263C31.8354 28.6162 31.8722 29.1003 31.9219 29.5786C33.0767 40.6764 41.2231 48.101 43.1089 49.6803C42.819 57.1424 41.9219 61.5911 39.8632 66.0792L39.6713 66.4064C35.8381 71.6439 32.2967 77.2984 29.075 83.3759C28.5877 84.294 27.9613 85.6558 27.2714 87.2321C25.8916 85.3923 24.6035 83.2177 23.3976 80.7905C31.0948 65.1392 27.2857 50.9382 22.707 41.7599C17.7907 31.8983 8.68558 23.5976 8.68558 23.5976L8.07132 24.6419C1.90848 35.0644 0.265133 45.4549 1.18875 54.3314C2.20818 64.1286 6.35224 72.0826 11.0055 76.2022C15.7534 80.4067 20.759 81.2684 22.204 81.4343C23.5784 84.1782 25.0621 86.6261 26.6639 88.6461C24.3045 94.1957 21.5562 101.349 21.396 101.763L21.3936 101.741ZM80.78 59.5582C80.4399 58.1569 78.8347 57.1899 77.4953 56.6065C78.5919 56.4201 79.718 56.2125 80.8784 55.9879C81.9909 56.3013 83.7027 56.9906 84.1102 57.6937C82.9839 58.3756 81.8693 58.9976 80.7845 59.5578L80.78 59.5582ZM76.1301 61.6369C76.2347 60.7314 76.0847 59.8977 75.673 59.1544C75.1667 58.2403 74.3606 57.6148 73.6176 57.2042C74.2902 57.1116 74.9758 57.0132 75.6738 56.9044C76.7004 57.2178 79.7679 58.2991 79.9343 59.9851C78.636 60.6216 77.3656 61.1785 76.1261 61.6418L76.1301 61.6369ZM62.9382 62.9101C62.5673 60.6491 61.2793 59.0392 60.2927 58.1118C61.1383 58.1187 62.0277 58.112 62.9654 58.0912C63.9945 58.6889 66.1931 60.3215 66.7355 63.4502C65.6076 63.423 64.5281 63.2959 63.4915 63.0604C63.3017 63.0169 63.1199 62.9635 62.9382 62.9101ZM71.8561 57.4282C72.3782 57.5817 74.1179 58.1913 74.8873 59.5931C75.2666 60.2855 75.3547 61.0896 75.1589 61.9864C74.0987 62.3497 73.0674 62.6423 72.0613 62.8735C71.5664 60.3317 69.1891 58.6318 67.8006 57.8366C69.0867 57.7344 70.437 57.5984 71.8561 57.4282ZM64.4645 58.0391C65.1347 58.0101 65.8224 57.9747 66.5359 57.9275C66.5784 57.9457 70.5923 59.9587 71.186 63.0594C69.9635 63.2951 68.7839 63.4223 67.6442 63.4551C67.2228 60.752 65.6969 59.0268 64.4605 58.0441L64.4645 58.0391ZM79.3103 54.8996C80.4517 53.6242 82.2222 51.1856 82.7572 47.99C84.0151 48.4419 85.1878 48.9433 86.2563 49.4421C85.8487 51.7344 84.3429 53.3729 83.6381 54.0246C82.145 54.3516 80.7022 54.6418 79.3058 54.9L79.3103 54.8996ZM77.7758 55.1767C76.3288 55.4267 74.9407 55.6344 73.6044 55.8186C74.9999 54.3361 77.5113 51.1155 78.1419 46.6675C79.4448 46.9431 80.7014 47.2958 81.8947 47.6912C81.2458 51.9197 78.1394 54.8497 77.7758 55.1767ZM72.1281 56.0038C71.1243 56.1263 70.1458 56.2327 69.2062 56.3214C70.9049 54.4956 74.6862 50.018 74.791 46.1623C75.6253 46.2337 76.4459 46.3471 77.2563 46.4931C76.4873 51.9992 72.5581 55.6202 72.1281 56.0038ZM73.8946 46.102C73.8159 50.3389 68.5038 55.7801 67.8451 56.4405C66.7829 56.5239 65.7681 56.5843 64.7925 56.6316C66.4034 55.0047 69.9118 50.944 70.2238 46.2129C71.4561 46.0711 72.6821 46.0429 73.8946 46.102ZM55.5164 57.8904C56.5238 57.9754 57.638 58.0447 58.8571 58.0805C59.4976 58.5469 61.3721 60.1048 61.9666 62.6046C58.6134 61.4265 56.5603 59.2818 55.5209 57.89L55.5164 57.8904ZM84.8748 57.2256C84.4696 56.5449 83.4918 56.0051 82.604 55.6366C84.8456 55.1639 87.2053 54.6112 89.6779 53.9699C88.0447 55.1654 86.4405 56.2494 84.8748 57.2256ZM85.2014 53.6767C85.9352 52.7826 86.7577 51.4817 87.0982 49.8469C88.8747 50.7238 90.2957 51.5699 91.2246 52.1599C89.1421 52.729 87.1301 53.2365 85.2018 53.6811L85.2014 53.6767ZM69.3107 46.3395C68.8439 51.7102 63.8468 56.3143 63.4378 56.6822C62.5279 56.7091 61.6573 56.7229 60.8345 56.7181C62.0626 55.3208 64.306 52.1733 64.1528 47.965C65.5551 47.286 67.0341 46.7797 68.5877 46.469C68.8312 46.421 69.0712 46.3825 69.3152 46.339L69.3107 46.3395ZM63.2522 48.4292C63.2177 52.8739 60.2764 56.0443 59.6087 56.7056C57.9017 56.6709 56.4055 56.5781 55.0962 56.4568C57.3909 52.8477 60.1209 50.1646 63.2522 48.4292ZM76.5358 27.7149C77.2612 27.3909 78.7357 26.8851 79.6462 27.2105C79.7778 27.2601 79.8885 27.3254 79.9922 27.4095C78.5448 28.5675 76.8737 29.5727 74.9958 30.4142C75.5311 29.5227 76.0427 28.6201 76.5403 27.7144L76.5358 27.7149ZM80.6906 26.8263C80.4845 26.6263 80.2424 26.4708 79.9518 26.37C79.0924 26.0573 78.0111 26.2602 77.1794 26.5184C77.534 25.8445 77.8752 25.172 78.2075 24.5004C79.2036 24.1302 81.6163 23.3912 83.1462 24.1988C82.4269 25.1456 81.6054 26.0218 80.691 26.8307L80.6906 26.8263ZM83.679 23.4567C82.1846 22.6002 80.1081 22.9653 78.7539 23.3683C79.1397 22.5601 79.5081 21.7582 79.8635 20.9622L79.8846 20.9917C79.9141 20.9705 82.7916 18.8368 85.6807 19.5934C85.5179 20.026 85.3416 20.46 85.1421 20.8874C84.7254 21.7891 84.2365 22.6487 83.679 23.4567ZM83.4332 11.8893C84.5394 10.7532 86.101 9.51993 86.93 9.41107C87.0352 10.7691 87.0576 12.2441 86.9323 13.7751C84.871 13.8089 83.1493 14.8058 82.0531 15.6472C82.558 14.3342 83.019 13.0754 83.4283 11.8853L83.4332 11.8893ZM82.3021 11.0492C81.9069 12.2017 81.4651 13.4269 80.9792 14.7063C80.8576 13.1467 80.1958 10.9115 77.9403 8.47155C78.6095 7.8688 79.3195 7.26634 80.0804 6.67663C81.1669 7.86925 81.9779 10.0619 82.3021 11.0492ZM80.7964 6.13227C81.9663 5.26057 83.2369 4.40098 84.6126 3.55304C84.2437 4.91516 83.6308 7.05718 82.7643 9.67285C82.3314 8.55227 81.6571 7.10894 80.7964 6.13227ZM86.8456 14.6787C86.6864 16.0145 86.4128 17.3803 85.9755 18.736C83.803 18.1352 81.6946 18.9329 80.4612 19.5853C80.7851 18.8333 81.0916 18.0876 81.386 17.3567C81.4101 17.327 83.7811 14.7988 86.8461 14.6832L86.8456 14.6787ZM78.1773 21.4314C77.4509 19.9212 75.6907 17.118 72.204 15.8724C72.6288 14.9608 73.1403 14.0582 73.7485 13.1726C78.1424 15.4939 78.9354 18.9038 79.0415 19.4891C78.7651 20.1323 78.4752 20.7769 78.1773 21.4314ZM86.8474 8.52965C85.9557 8.64502 84.897 9.36961 84.0413 10.0912C84.9555 7.32596 85.5945 5.08635 85.9624 3.71529C86.2665 4.8583 86.6359 6.54118 86.8474 8.52965ZM77.2809 9.08231C81.0437 13.1545 80.239 16.5815 80.1909 16.7265C79.9969 17.2075 79.799 17.6935 79.5926 18.1848C79.0416 16.7106 77.6572 14.2613 74.2777 12.4399C75.1264 11.3034 76.1258 10.1829 77.2809 9.08231ZM71.8384 16.7011C75.7352 18.0666 77.3398 21.6766 77.6674 22.5235C77.1451 23.626 76.5968 24.7403 76.0159 25.8444C75.4728 24.4461 74.0901 22.1006 70.7748 20.9818C70.8086 20.6123 70.8549 20.2325 70.9236 19.8504C71.1067 18.7877 71.4178 17.7388 71.838 16.6966L71.8384 16.7011ZM70.7186 21.9183C74.3689 23.2598 75.2631 26.2525 75.426 26.9494C74.7508 28.1898 74.0425 29.4155 73.2911 30.6187C72.3653 29.2331 70.6117 26.0588 70.7141 21.9188L70.7186 21.9183ZM103.642 25.1158C103.743 25.0917 103.845 25.0676 103.946 25.048C105.024 24.8093 106.095 24.594 107.154 24.3934C108.104 25.406 110.767 28.4631 112.177 32.1928C109.051 30.6793 106.198 28.3151 103.646 25.1154L103.642 25.1158ZM124.657 12.05C124.358 16.5628 118.321 20.9409 117.398 21.5836C116.159 21.699 114.9 21.8436 113.611 22.0048C115.475 20.2477 119.328 16.2008 120.821 11.532C122.061 11.5972 123.34 11.7669 124.657 12.05ZM132.767 22.4738C134.817 22.9833 139.878 24.9822 140.507 27.3339C139.277 28.1531 137.893 29.0019 136.382 29.8142C135.209 25.834 131.789 23.5379 129.475 22.4007C130.619 22.4082 131.715 22.4342 132.772 22.4733L132.767 22.4738ZM113.295 32.6954C112.067 28.8384 109.488 25.6325 108.196 24.1992C109.105 24.0368 110.002 23.8892 110.892 23.7515C111.753 24.1272 115.018 26.0194 118.881 34.093C116.94 33.8929 115.075 33.4273 113.295 32.6954ZM119.91 34.1712C116.766 27.4503 113.951 24.6666 112.324 23.5392C113.304 23.4011 114.272 23.2778 115.227 23.1649C116.641 23.8174 120.777 26.2605 125.017 33.8792C123.341 34.1484 121.632 34.2631 119.91 34.1712ZM116.818 22.9948C118.499 22.8244 120.13 22.6954 121.715 22.6027C121.786 22.6315 128.458 25.651 130.721 32.3776C129.184 32.9351 127.587 33.3949 125.953 33.7185C122.384 27.2046 118.879 24.2667 116.818 22.9948ZM123.239 22.521C124.583 22.4579 125.885 22.4218 127.144 22.4083C128.235 22.7781 134.119 24.9987 135.564 30.2472C134.299 30.8984 132.962 31.5119 131.56 32.0599C129.75 26.6957 125.387 23.7161 123.235 22.5259L123.239 22.521ZM131.888 21.1014C133.251 20.1735 135.123 18.5827 135.735 16.522C137.037 17.2631 138.365 18.0872 139.724 18.9894C139.108 20.2779 137.402 21.0699 136.734 21.3382C135.245 21.231 133.624 21.1513 131.892 21.101L131.888 21.1014ZM130.222 21.067C128.837 21.0484 127.382 21.0507 125.873 21.0858C127.631 19.6604 130.367 16.9948 130.684 14.0026C132.064 14.5908 133.478 15.2796 134.925 16.0688C134.29 18.6558 131.131 20.5612 130.221 21.0625L130.222 21.067ZM124.332 21.1287C122.657 21.19 120.914 21.2855 119.113 21.4323C121.247 19.7554 125.197 16.1548 125.546 12.2557C126.928 12.5998 128.349 13.0618 129.811 13.6462C129.652 17.024 125.648 20.1831 124.332 21.1332L124.332 21.1287ZM141.275 26.8157C140.508 24.8263 137.568 23.4064 135.387 22.5987C139.952 22.8692 143.414 23.3583 145.382 23.6911C144.527 24.4127 143.109 25.5496 141.271 26.8162L141.275 26.8157ZM138.465 21.4743C139.212 21.017 140.016 20.3641 140.473 19.4988C141.66 20.3105 142.872 21.1874 144.099 22.1215C142.635 21.9078 140.73 21.6677 138.464 21.4698L138.465 21.4743ZM119.883 11.5031C117.975 17.096 112.428 21.8839 112.029 22.2191C111.01 22.3658 109.978 22.5229 108.935 22.7037C110.438 21.0879 112.473 17.9802 112.569 12.9915C113.216 12.6983 113.903 12.4416 114.626 12.2263C116.287 11.7327 118.043 11.4958 119.883 11.5076L119.883 11.5031ZM102.743 23.9443C102.743 23.9443 105.794 16.5337 111.657 13.4343C111.395 19.0367 108.458 22.0349 107.32 22.9892C106.132 23.2077 104.928 23.4504 103.709 23.7173C103.386 23.7871 103.065 23.8702 102.743 23.9443ZM44.2986 48.1741C44.3175 47.0968 44.3215 45.9624 44.2966 44.7678C45.8689 42.422 48.7516 42.2486 50.224 42.3303C48.7459 44.6256 46.762 46.5759 44.2941 48.1745L44.2986 48.1741ZM43.7578 21.0913C44.9158 17.0221 48.7159 15.2442 50.463 14.579C51.0922 16.3704 51.6794 18.2791 52.1653 20.2571C50.2708 20.6349 46.2823 21.818 43.6115 25.3307C43.6429 23.8953 43.6895 22.4763 43.7578 21.0913ZM43.8749 18.9602C44.0033 16.8505 44.1643 14.8368 44.341 12.9751C45.541 10.004 47.0791 8.71901 47.894 8.21405C48.6312 9.82704 49.4167 11.688 50.1618 13.7249C48.5566 14.3211 45.5526 15.8038 43.8794 18.9597L43.8749 18.9602ZM44.5894 10.4554C44.9109 7.42208 45.2462 4.95655 45.4751 3.37858C45.9715 4.28472 46.693 5.6599 47.5052 7.38706C46.8071 7.79855 45.6699 8.68041 44.5894 10.4554ZM42.5425 18.6606C40.6626 14.6636 38.1236 13.1025 37.2185 12.6546C37.9781 11.4009 38.8371 10.1459 39.7962 8.89852C40.7568 9.35879 42.5357 10.6059 42.8991 13.9249C42.7661 15.4251 42.6468 17.0143 42.5425 18.6606ZM42.4252 20.7465C42.3459 22.2863 42.2892 23.869 42.2572 25.4717C39.5823 21.0423 35.8353 19.3359 34.3105 18.7943C34.9236 17.0001 35.7401 15.2074 36.7565 13.4255C37.5514 13.8127 40.6065 15.6001 42.4207 20.747L42.4252 20.7465ZM42.2363 27.3126C42.2275 29.0077 42.2478 30.7224 42.3078 32.4285C39.2927 28.3327 34.0743 27.0324 32.9379 26.7937C32.9432 24.4123 33.3102 22.0338 34.0305 19.6638C35.5853 20.2339 39.7362 22.1739 42.2323 27.3175L42.2363 27.3126ZM43.7748 34.8465C46.0464 30.1465 51.5634 29.4098 53.463 29.2979C53.5165 31.3751 53.3785 33.4361 52.9805 35.4292C50.9321 35.5882 46.432 36.1965 44.0369 38.5375C43.9888 37.8151 43.9394 37.0793 43.8782 36.3176C43.8409 35.8291 43.8076 35.3356 43.7744 34.842L43.7748 34.8465ZM50.7531 41.4665C49.4736 41.3286 46.3664 41.2543 44.2665 43.3929C44.2347 42.2622 44.1785 41.0708 44.1078 39.8267C45.9047 37.295 50.5139 36.5624 52.7651 36.3552C52.7497 36.4246 52.7348 36.4985 52.7194 36.5678C52.2663 38.3363 51.6093 39.9679 50.7531 41.4665ZM42.9262 43.5821C41.5447 42.4202 39.7226 42.4516 38.5164 42.7579C37.3086 41.0944 36.101 39.1283 35.123 36.8943C37.0289 37.0168 41.5341 37.5419 42.8118 40.7025C42.8614 41.7003 42.9024 42.6584 42.9262 43.5821ZM53.4286 28.4025C51.5513 28.5119 46.4487 29.192 43.69 33.2063C43.5963 31.1333 43.5687 29.0444 43.5886 26.9776C46.007 22.8632 50.4546 21.5329 52.3795 21.1429C52.9198 23.5128 53.3012 25.9625 53.4286 28.4025ZM44.0126 4.08646C43.7613 5.88363 43.4352 8.43854 43.1277 11.475C42.4109 9.57974 41.2323 8.63162 40.3576 8.17145C41.4531 6.80149 42.6715 5.44132 44.0121 4.08199L44.0126 4.08646ZM32.9622 27.9388C32.9548 27.8673 32.9603 27.7899 32.9573 27.7179C34.468 28.0803 39.9934 29.683 42.3938 34.2538C42.4334 34.9816 42.4819 35.7084 42.534 36.4259C42.609 37.4075 42.6754 38.3493 42.73 39.2653C40.6571 36.4088 36.3148 36.0158 34.7374 35.9676C33.7771 33.5556 33.0991 30.8612 32.9622 27.9388ZM39.1143 43.554C40.1435 43.3702 41.8696 43.3713 42.9553 44.948C42.9727 45.9401 42.9721 46.8889 42.9583 47.7985C42.0125 46.9165 40.5928 45.4739 39.1148 43.5585L39.1143 43.554ZM20.5463 74.6221C20.8835 73.3897 22.0577 70.3445 25.5181 69.7314C24.9217 72.7708 23.933 75.9052 22.45 79.1091C21.7905 77.6777 21.1558 76.1806 20.5463 74.6221ZM10.9889 36.6586C11.1973 35.7515 12.0177 32.9102 14.4351 31.5653C16.039 33.5625 17.773 35.9844 19.4083 38.7599C15.0861 41.5996 13.3993 44.4949 12.7432 46.2664C12.0542 42.8141 11.4714 39.5586 10.9885 36.6542L10.9889 36.6586ZM9.70472 37.3435C10.1505 40.0214 10.6753 42.9802 11.2902 46.1104C9.76488 44.9996 6.99934 43.6067 2.52795 43.3626C2.93413 40.4921 3.6342 37.5369 4.67753 34.5369C7.19903 34.8437 8.91497 36.4407 9.70472 37.3435ZM11.5722 47.5177C12.0169 49.7078 12.5053 51.9702 13.0373 54.2596C11.4819 53.1203 8.16129 51.4734 2.13471 51.6984C2.0214 49.3067 2.10132 46.818 2.4135 44.26C7.7199 44.5392 10.5071 46.5307 11.5766 47.5173L11.5722 47.5177ZM14.7843 55.5913C15.2504 54.1649 17.078 50.5818 23.9471 48.5975C24.6866 50.7976 25.3034 53.164 25.7132 55.6695C19.5038 56.4827 17.1265 59.3415 16.2268 61.2467C15.7148 59.3664 15.2332 57.4738 14.7843 55.5913ZM17.0109 68.7824C14.8863 67.4267 10.7044 65.4492 5.67693 66.5913C4.78022 64.6606 4.00748 62.5318 3.41206 60.2399C9.96814 59.8062 14.1687 62.6581 15.4598 63.6894C15.9501 65.4049 16.4662 67.1087 17.0109 68.7824ZM17.4848 70.2104C17.9097 71.4719 18.3502 72.7091 18.8107 73.9217C17.1234 73.2072 14.2106 72.5706 11.4324 74.834C9.47281 73.0229 7.61543 70.5009 6.08451 67.4254C11.5905 66.2787 16.1038 69.184 17.4897 70.2144L17.4848 70.2104ZM18.6307 69.2824C18.7105 68.6597 19.4501 65.1717 26.1276 65.254C26.0366 66.4201 25.8928 67.6006 25.6874 68.7967C22.3453 69.2438 20.7572 71.6545 20.0556 73.3358C19.5611 72.0139 19.0861 70.6627 18.6307 69.2824ZM26.188 64.3577C20.9114 64.2787 18.9201 66.3744 18.1721 67.8709C17.6355 66.1873 17.1228 64.4742 16.6401 62.7443C16.9201 61.527 18.4106 57.5272 25.8509 56.5587C26.1993 59.0389 26.3394 61.6447 26.1924 64.3572L26.188 64.3577ZM21.2625 42.1632C22.1117 43.8549 22.9299 45.726 23.6504 47.7428C17.8394 49.4318 15.4259 52.2039 14.43 54.0966C13.9491 52.0368 13.0968 48.0142 13.0968 48.0142C13.1011 47.9686 13.5178 43.7236 19.8554 39.5401C20.3364 40.3846 20.8072 41.2618 21.258 42.1637L21.2625 42.1632ZM13.8554 30.8576C12.1726 31.8369 11.2076 33.4191 10.6681 34.7042C10.0718 30.9712 9.66097 27.9779 9.42513 26.1456C10.4421 27.0608 12.0418 28.6699 13.8509 30.858L13.8554 30.8576ZM9.44994 35.8068C8.44918 34.917 6.9531 33.9567 4.98529 33.6735C5.82757 31.3902 6.871 29.0859 8.13932 26.7718C8.40102 28.8092 8.8277 31.9545 9.4504 35.8112L9.44994 35.8068ZM2.18256 52.5925C9.9426 52.3091 12.9546 55.2893 13.393 55.7677C13.9114 57.9276 14.4679 60.106 15.0637 62.2713C13.0617 60.921 9.03135 58.9233 3.19788 59.3541C2.69612 57.2241 2.34719 54.9563 2.18256 52.5925ZM12.1181 75.4313C15.0892 73.1117 18.1557 74.4868 19.2767 75.1427C19.9159 76.7704 20.5858 78.3452 21.2881 79.8399C19.4354 79.4905 15.7071 78.4418 12.1181 75.4313Z" fill="#0BCFD2"/>
</svg>
