<svg width="147" height="139" viewBox="0 0 147 139" fill="none" xmlns="http://www.w3.org/2000/svg">
<path d="M144.508 92.2008C145.497 91.3893 146.114 90.0256 146.121 87.9004C144.234 79.1914 134.604 74.8688 126.433 75.0691C119.834 78.5449 127.305 86.329 130.378 89.9519C134 91.6345 141.277 94.8519 144.508 92.2008ZM106.822 116.751C113.014 111.355 109.627 99.7192 102.213 96.9456C94.2458 91.9182 85.5638 101.595 90.7018 109.233C95.7092 111.804 100.329 119.647 106.82 116.753L106.822 116.751ZM65.3907 138.058C66.0756 137.52 66.6094 136.583 66.9283 135.089C69.324 126.451 57.6059 120.246 55.678 119.667C53.7501 119.088 49.6324 118.935 48.4966 122.302C47.3608 125.669 51.72 128.178 54.5088 131.675C58.0813 136.154 63.2906 138.689 63.8532 138.643C64.4159 138.597 64.9372 138.416 65.3936 138.059L65.3907 138.058ZM96.9134 69.9887C98.4316 68.7586 99.3197 66.9151 98.7708 64.6428C98.3413 60.2419 96.2939 54.4689 91.3795 53.6204C85.4491 53.8223 86.4885 61.752 86.6775 65.9581C86.5359 66.9759 86.4952 68.0605 86.8672 69.0429C88.8208 72.452 94.0195 72.3396 96.9134 69.9887ZM53.5039 81.9071C58.2232 77.989 58.3146 70.8299 57.8318 65.0976C55.9953 58.0871 46.9691 61.2966 42.2026 62.9508C37.6673 66.4829 41.4133 72.9314 44.135 76.5335C45.0236 80.2979 48.6172 84.2448 52.7734 82.4634C53.0253 82.2819 53.2727 82.1012 53.4972 81.902L53.5023 81.9084L53.5039 81.9071ZM72.6963 30.5162C76.8904 27.1003 78.3881 19.8635 74.9377 15.4895C70.0808 14.1692 61.7283 14.0719 58.4054 18.6155C56.834 25.1689 63.119 30.0359 68.2227 32.775C69.2767 32.3996 70.3173 31.9715 71.3127 31.4451C71.7965 31.1745 72.2659 30.876 72.6937 30.513L72.6963 30.5162ZM13.6584 54.4213C15.5807 52.8605 16.6946 50.5234 15.9944 47.6435C15.4491 42.0646 12.8687 34.7544 6.638 33.6758C-0.881224 33.9305 0.434526 43.9793 0.674512 49.3124C0.489657 50.6082 0.444999 51.9709 0.908773 53.2203C3.38567 57.5428 9.98754 57.3975 13.6571 54.4197L13.6584 54.4213ZM30.3737 15.3185C33.4535 12.7203 34.6519 8.07135 30.7775 5.08001C29.2616 3.07338 27.3782 1.93082 25.2995 1.32613C25.2995 1.32613 20.9324 -1.37411 13.9659 3.1377C6.9994 7.64952 9.75174 13.8424 9.75174 13.8424C10.2293 14.4227 10.7261 14.9292 11.231 15.3156L11.2374 15.3105C15.2699 16.898 19.6892 17.7593 23.9961 17.1147C26.3338 17.5955 28.6482 16.7789 30.375 15.3201L30.3737 15.3185Z" fill="#0BCFD2" fill-opacity="0.6"/>
</svg>
