<svg width="24" height="25" viewBox="0 0 24 25" fill="none" xmlns="http://www.w3.org/2000/svg">
<path d="M10.5495 3.0319C11.3874 2.32531 12.6126 2.32531 13.4505 3.0319L20.2005 8.724C20.7074 9.15152 21 9.7809 21 10.4441V11.7613C20.5153 11.5862 20.0075 11.4992 19.5 11.4999V10.4441C19.5 10.223 19.4025 10.0132 19.2335 9.87071L12.4835 4.1786C12.2042 3.94307 11.7958 3.94307 11.5165 4.1786L4.76651 9.87071C4.59752 10.0132 4.5 10.223 4.5 10.4441V19.7539C4.5 19.892 4.61193 20.0039 4.75 20.0039H11.9187L13.3679 21.5039H4.75C3.7835 21.5039 3 20.7204 3 19.7539V10.4441C3 9.7809 3.29255 9.15152 3.79952 8.724L10.5495 3.0319ZM21.9768 18.6727C23.3411 17.2606 23.3411 14.9711 21.9768 13.5589C21.8276 13.4045 21.6683 13.267 21.5011 13.1464C20.1389 12.1637 18.2514 12.3012 17.0363 13.5589H16.9637C15.8917 12.4493 14.2963 12.2116 13 12.8458C12.3747 13.1518 11.85 13.6495 11.5 14.2501C10.6898 15.6402 10.8642 17.4731 12.0232 18.6727L16.4655 23.2708C16.7606 23.5762 17.2394 23.5762 17.5345 23.2708L21.9768 18.6727Z" fill="white"/>
</svg>
