<svg width="177" height="176" viewBox="0 0 177 176" fill="none" xmlns="http://www.w3.org/2000/svg">
<path opacity="0.8" d="M155.564 0.317383H21.3284C9.99294 0.317383 0.803711 9.50661 0.803711 20.8421V155.078C0.803711 166.413 9.99294 175.603 21.3284 175.603H155.564C166.9 175.603 176.089 166.413 176.089 155.078V20.8421C176.089 9.50661 166.9 0.317383 155.564 0.317383Z" fill="#330000"/>
<path d="M61.2301 108.791L54.6827 128.433C54.4446 129.069 54.0095 129.385 53.3732 129.385H41.4689C40.8326 129.385 40.5535 128.991 40.6356 128.195L65.1585 58.4355C65.3966 57.8033 65.5936 57.0849 65.7537 56.2927C65.9138 55.5004 66.0698 54.0719 66.2299 52.0071C66.2299 51.453 66.468 51.1738 66.9442 51.1738H83.4912C83.9674 51.1738 84.2465 51.4119 84.3245 51.8881L111.823 128.314C111.901 129.028 111.663 129.385 111.109 129.385H97.7764C97.2181 129.385 96.824 129.147 96.5859 128.671L89.6814 108.791H61.2301ZM85.872 95.8151C85.2358 93.8324 84.4435 91.4105 83.4912 88.5534C82.5388 85.6964 81.566 82.7203 80.5767 79.6252C79.5833 76.5301 78.6104 73.5129 77.6581 70.5779C76.7057 67.6429 75.9504 65.1429 75.3962 63.0782H75.2772C74.801 65.0608 74.1648 67.3842 73.3725 70.0401C72.5802 72.7001 71.7059 75.4792 70.7535 78.3732C69.8012 81.2713 68.8283 84.2268 67.8349 87.2399C66.8415 90.257 65.9097 93.114 65.0395 95.811H85.872V95.8151Z" fill="#FFA500"/>
<path d="M127.775 62.7209C125.312 62.7209 123.35 61.9656 121.885 60.4591C120.415 58.9526 119.68 56.9699 119.68 54.507C119.68 52.044 120.452 50.0613 121.999 48.5548C123.547 47.0483 125.513 46.293 127.894 46.293C130.435 46.293 132.418 47.0647 133.846 48.6164C135.275 50.1639 135.989 52.1261 135.989 54.507C135.989 56.8878 135.254 58.9526 133.789 60.4591C132.319 61.9656 130.316 62.7209 127.775 62.7209ZM120.509 71.5302C120.509 70.976 120.825 70.6968 121.462 70.6968H134.08C134.712 70.6968 135.033 70.976 135.033 71.5302V128.433C135.033 129.069 134.676 129.385 133.961 129.385H121.7C120.908 129.385 120.509 129.028 120.509 128.314V71.5302Z" fill="#FFA500"/>
</svg>
