<svg width="177" height="176" viewBox="0 0 177 176" fill="none" xmlns="http://www.w3.org/2000/svg">
<path d="M155.564 0.317383H21.3279C9.99245 0.317383 0.803223 9.50661 0.803223 20.8421V155.078C0.803223 166.413 9.99245 175.603 21.3279 175.603H155.564C166.899 175.603 176.088 166.413 176.088 155.078V20.8421C176.088 9.50661 166.899 0.317383 155.564 0.317383Z" fill="#001E36" fill-opacity="0.85"/>
<path d="M36.9272 49.244C36.9272 48.6078 37.2023 48.2917 37.7605 48.2917C40.0593 48.2137 43.216 48.1357 47.2224 48.0536C51.2289 47.9756 55.4159 47.9346 59.7795 47.9346C65.5715 47.9346 70.4728 48.6694 74.4834 50.1389C78.4898 51.6085 81.745 53.5542 84.2449 55.972C86.7448 58.394 88.5715 61.173 89.7209 64.3051C90.8703 67.4413 91.4491 70.6349 91.4491 73.8901C91.4491 78.6519 90.5953 82.7404 88.8876 86.1516C87.1799 89.5628 84.8401 92.3624 81.864 94.5421C78.888 96.7259 75.4357 98.3515 71.5073 99.4229C67.5788 100.494 63.3508 101.028 58.8312 101.028H51.3315V125.432C51.3315 126.068 51.0154 126.384 50.3791 126.384H37.8796C37.2433 126.384 36.9272 126.109 36.9272 125.551V49.244ZM51.3315 88.2903C52.3618 88.3683 53.3757 88.4093 54.3691 88.4093H58.8353C61.2942 88.4093 63.6586 88.1712 65.9163 87.695C68.1782 87.2189 70.1444 86.4471 71.8069 85.3716C73.4735 84.3003 74.8035 82.8553 75.7928 81.0245C76.7862 79.1978 77.2788 76.9401 77.2788 74.239C77.2788 69.8755 75.7928 66.4807 72.8127 64.0588C69.8366 61.641 65.6126 60.43 60.1366 60.43C58.0718 60.43 56.2492 60.4505 54.6606 60.4916C53.072 60.5326 51.9595 60.5901 51.3274 60.6681V88.2862L51.3315 88.2903Z" fill="#39BDFF"/>
<path d="M135.852 81.5041C134.025 80.4738 131.747 79.6405 129.009 79.0042C126.271 78.368 123.595 78.0519 120.972 78.0519C117.798 78.0519 115.594 78.5896 114.367 79.661C113.135 80.7324 112.52 81.9023 112.52 83.1749C112.52 84.5254 113.135 85.7158 114.367 86.7462C115.598 87.7806 118.115 89.049 121.928 90.5555C128.672 93.0965 133.397 95.814 136.094 98.7121C138.791 101.61 140.142 105.161 140.142 109.364C140.142 115 138.077 119.442 133.951 122.697C129.826 125.952 124.071 127.578 116.69 127.578C113.119 127.578 109.884 127.278 106.99 126.683C104.092 126.088 101.732 125.275 99.9091 124.245C99.3509 123.929 99.0758 123.494 99.0758 122.935V111.626C99.0758 110.912 99.3919 110.715 100.028 111.031C102.565 112.698 105.365 113.909 108.419 114.66C111.473 115.415 114.35 115.793 117.051 115.793C120.147 115.793 122.445 115.317 123.956 114.364C125.462 113.412 126.218 112.143 126.218 110.555C126.218 109.048 125.54 107.739 124.194 106.626C122.843 105.514 120.307 104.204 116.575 102.698C110.069 100.317 105.504 97.6776 102.885 94.7795C100.266 91.8855 98.9568 88.2937 98.9568 84.0041C98.9568 81.7833 99.4124 79.5994 100.328 77.4567C101.239 75.3139 102.631 73.4502 104.494 71.8616C106.358 70.273 108.681 68.9882 111.456 67.9948C114.231 67.0014 117.486 66.5088 121.218 66.5088C124.711 66.5088 127.724 66.7305 130.265 67.1615C132.806 67.6007 134.789 68.1754 136.217 68.8897C136.694 69.2098 136.932 69.686 136.932 70.3182V80.794C136.932 81.5083 136.574 81.7463 135.86 81.5082L135.852 81.5041Z" fill="#39BDFF"/>
</svg>
