<svg width="24" height="25" viewBox="0 0 24 25" fill="none" xmlns="http://www.w3.org/2000/svg">
<path d="M5.3999 4.1001C3.74305 4.1001 2.3999 5.44325 2.3999 7.1001V17.9001C2.3999 19.5569 3.74305 20.9001 5.3999 20.9001H10.7999V19.7001H5.3999C4.40579 19.7001 3.5999 18.8942 3.5999 17.9001V10.1001H8.50285C8.98023 10.1001 9.43807 9.91045 9.77564 9.57289L11.6484 7.7001H18.5999C19.594 7.7001 20.3999 8.50598 20.3999 9.5001V11.8999C20.9892 12.3425 21.4102 12.997 21.5496 13.7504C21.5664 13.7535 21.5832 13.7567 21.5999 13.7601V9.5001C21.5999 7.84325 20.2567 6.5001 18.5999 6.5001H11.6484L9.86351 4.71517C9.46968 4.32134 8.93553 4.1001 8.37858 4.1001H5.3999ZM3.5999 7.1001C3.5999 6.10598 4.40579 5.3001 5.3999 5.3001H8.37858C8.61728 5.3001 8.84619 5.39492 9.01497 5.5637L10.5514 7.1001L8.92711 8.72436C8.81459 8.83688 8.66197 8.9001 8.50285 8.9001H3.5999V7.1001ZM14.3999 14.3001V14.9001H13.7999C12.8058 14.9001 11.9999 15.706 11.9999 16.7001V21.5001C11.9999 22.4942 12.8058 23.3001 13.7999 23.3001H20.9999C21.994 23.3001 22.7999 22.4942 22.7999 21.5001V16.7001C22.7999 15.706 21.994 14.9001 20.9999 14.9001H20.3999V14.3001C20.3999 13.306 19.594 12.5001 18.5999 12.5001H16.1999C15.2058 12.5001 14.3999 13.306 14.3999 14.3001ZM16.1999 13.7001H18.5999C18.9312 13.7001 19.1999 13.9688 19.1999 14.3001V14.9001H15.5999V14.3001C15.5999 13.9688 15.8686 13.7001 16.1999 13.7001Z" fill="white"/>
</svg>
