<svg width="24" height="25" viewBox="0 0 24 25" fill="none" xmlns="http://www.w3.org/2000/svg">
<path d="M13 14.5503V14.5002H4.25278C3.01076 14.5002 2.00391 15.507 2.00391 16.7491V17.3267C2.00391 18.2195 2.32242 19.083 2.90219 19.7619C4.46849 21.5962 6.8545 22.5013 10.0004 22.5013C10.3579 22.5013 10.7055 22.4896 11.0434 22.4662C11.0149 22.3153 11 22.1595 11 22.0002V20.9658C10.679 20.9895 10.3458 21.0013 10.0004 21.0013C7.26206 21.0013 5.29618 20.2555 4.04287 18.7878C3.69502 18.3805 3.50391 17.8624 3.50391 17.3267V16.7491C3.50391 16.3355 3.83919 16.0002 4.25278 16.0002H11.2081C11.5294 15.2648 12.1944 14.7138 13 14.5503ZM10.0004 2.50488C12.7618 2.50488 15.0004 4.74346 15.0004 7.50488C15.0004 10.2663 12.7618 12.5049 10.0004 12.5049C7.23894 12.5049 5.00036 10.2663 5.00036 7.50488C5.00036 4.74346 7.23894 2.50488 10.0004 2.50488ZM10.0004 4.00488C8.06737 4.00488 6.50036 5.57189 6.50036 7.50488C6.50036 9.43788 8.06737 11.0049 10.0004 11.0049C11.9334 11.0049 13.5004 9.43788 13.5004 7.50488C13.5004 5.57189 11.9334 4.00488 10.0004 4.00488ZM14 15.5003H13.5C12.6716 15.5003 12 16.1719 12 17.0003V22.0002C12 22.8287 12.6716 23.5002 13.5 23.5002H21.5C22.3284 23.5002 23 22.8287 23 22.0002V17.0003C23 16.1719 22.3284 15.5003 21.5 15.5003H21V14.2502C21 13.2837 20.2165 12.5002 19.25 12.5002H15.75C14.7835 12.5002 14 13.2837 14 14.2502V15.5003ZM15.5 14.2502C15.5 14.1122 15.6119 14.0002 15.75 14.0002H19.25C19.3881 14.0002 19.5 14.1122 19.5 14.2502V15.5003H15.5V14.2502Z" fill="white"/>
</svg>
