<svg width="24" height="25" viewBox="0 0 24 25" fill="none" xmlns="http://www.w3.org/2000/svg">
<path d="M13.585 3.086L14.5541 4.05491L13.3418 4.50349C12.8809 4.67404 12.8809 5.32596 13.3418 5.49651L13.5 5.55505V8.5C13.5 8.775 13.724 9 14 9H17.378L16.7947 8.41658C16.8819 8.35897 16.9541 8.27284 16.9965 8.1582L17.4452 6.94556L19.1646 8.66463C19.129 8.70021 19.0858 8.72818 19.0375 8.74605L17.8945 9.16899C17.5873 9.2827 17.5873 9.7173 17.8945 9.83101L19.0375 10.254C19.1341 10.2897 19.2103 10.3659 19.246 10.4625L19.669 11.6055C19.7258 11.7591 19.8629 11.8359 20 11.8359V20.5C20 21.604 19.104 22.5 18 22.5H11.1904C11.6168 22.0557 11.9806 21.551 12.2678 21H18C18.276 21 18.5 20.775 18.5 20.5V10.5H14C12.896 10.5 12 9.604 12 8.5V4H6C5.724 4 5.5 4.225 5.5 4.5V11.5764C4.97679 11.6572 4.47417 11.8004 4 11.9982V4.5C4 3.396 4.896 2.5 6 2.5H12.172C12.1999 2.5 12.2271 2.50371 12.2542 2.50741C12.2737 2.51007 12.2934 2.51274 12.313 2.514C12.528 2.529 12.74 2.57 12.937 2.652C12.9943 2.67644 13.0486 2.70786 13.1027 2.73916L13.1091 2.74287C13.1238 2.75132 13.1383 2.75974 13.153 2.768C13.1682 2.77629 13.1838 2.78393 13.1995 2.79157L13.2005 2.79207C13.2281 2.80548 13.2557 2.81894 13.281 2.836C13.359 2.889 13.429 2.952 13.5 3.016C13.5115 3.0262 13.5238 3.03567 13.5363 3.0452C13.5531 3.05808 13.57 3.07105 13.585 3.086Z" fill="white"/>
<path d="M15.6903 7.31189L14.1887 5.8099L15.0563 6.13093C15.2012 6.18455 15.3155 6.2988 15.3691 6.44371L15.6903 7.31189Z" fill="white"/>
<path fill-rule="evenodd" clip-rule="evenodd" d="M6.5 23.5C3.46243 23.5 1 21.0376 1 18C1 14.9624 3.46243 12.5 6.5 12.5C9.53757 12.5 12 14.9624 12 18C12 21.0376 9.53757 23.5 6.5 23.5ZM5.35355 15.8536C5.54882 15.6583 5.54882 15.3417 5.35355 15.1464C5.15829 14.9512 4.84171 14.9512 4.64645 15.1464L2.14645 17.6464C1.95118 17.8417 1.95118 18.1583 2.14645 18.3536L4.64645 20.8536C4.84171 21.0488 5.15829 21.0488 5.35355 20.8536C5.54882 20.6583 5.54882 20.3417 5.35355 20.1464L3.20711 18L5.35355 15.8536ZM7.64645 15.1464C7.45118 15.3417 7.45118 15.6583 7.64645 15.8536L9.79289 18L7.64645 20.1464C7.45118 20.3417 7.45118 20.6583 7.64645 20.8536C7.84171 21.0488 8.15829 21.0488 8.35355 20.8536L10.8536 18.3536C11.0488 18.1583 11.0488 17.8417 10.8536 17.6464L8.35355 15.1464C8.15829 14.9512 7.84171 14.9512 7.64645 15.1464Z" fill="white"/>
<path d="M16.1138 2.54362C16.2465 2.18513 16.7535 2.18513 16.8862 2.54362L17.3796 3.87711C17.4213 3.98982 17.5102 4.07868 17.6229 4.12039L18.9564 4.61383C19.3149 4.74648 19.3149 5.25352 18.9564 5.38617L17.6229 5.87961C17.5102 5.92132 17.4213 6.01018 17.3796 6.12289L16.8862 7.45638C16.7535 7.81487 16.2465 7.81487 16.1138 7.45638L15.6204 6.12289C15.5787 6.01018 15.4898 5.92132 15.3771 5.87961L14.0436 5.38617C13.6851 5.25352 13.6851 4.74648 14.0436 4.61383L15.3771 4.12039C15.4898 4.07868 15.5787 3.98982 15.6204 3.87711L16.1138 2.54362Z" fill="white"/>
<path d="M19.7793 8.09635C19.8551 7.8915 20.1449 7.8915 20.2207 8.09635L20.5026 8.85835C20.5265 8.92275 20.5772 8.97353 20.6417 8.99737L21.4036 9.27933C21.6085 9.35513 21.6085 9.64487 21.4036 9.72067L20.6417 10.0026C20.5772 10.0265 20.5265 10.0772 20.5026 10.1417L20.2207 10.9036C20.1449 11.1085 19.8551 11.1085 19.7793 10.9036L19.4974 10.1417C19.4735 10.0772 19.4228 10.0265 19.3583 10.0026L18.5964 9.72067C18.3915 9.64487 18.3915 9.35513 18.5964 9.27933L19.3584 8.99737C19.4228 8.97353 19.4735 8.92275 19.4974 8.85835L19.7793 8.09635Z" fill="white"/>
</svg>
