<svg width="770" height="543" viewBox="0 0 770 543" fill="none" xmlns="http://www.w3.org/2000/svg">
<mask id="mask0_2216_19" style="mask-type:alpha" maskUnits="userSpaceOnUse" x="0" y="0" width="770" height="543">
<rect width="770" height="543" fill="#D9D9D9"/>
</mask>
<g mask="url(#mask0_2216_19)">
<path d="M721.258 444.43C787.961 396.584 779.346 223.49 703.93 145.338C613.135 51.2486 437.234 -6.09148 320.73 11.2367C129.933 39.6147 193.684 153.91 61.297 270.021C-30.6154 350.634 3.66325 465.525 95.9523 494.53C140.132 508.415 291.455 509.974 354.739 475.318C463.979 395.46 582.602 543.887 721.258 444.43Z" fill="#121F38"/>
<path d="M443.397 358.714C443.93 360.32 445.321 361.73 447.942 362.747C459.594 364.552 469.506 354.71 473.137 344.524C471.978 334.723 458.817 340.254 452.883 342.33C449.085 346.005 441.656 353.465 443.397 358.714ZM430.968 300.513C434.694 310.722 450.672 312.064 457.618 304.224C467.61 296.771 459.78 281.453 447.907 284.173C442.355 289.137 430.474 291.119 430.967 300.51L430.968 300.513ZM424.323 239.226C424.663 240.328 425.567 241.432 427.26 242.535C436.792 249.595 449.16 242.578 452.219 233.157C452.475 232.295 453.077 229.246 451.814 226.901C450.551 224.556 445.419 221.478 433.492 227.398C421.565 233.319 423.414 236.634 423.414 236.634C423.203 237.351 424.097 238.497 424.321 239.23L424.323 239.226ZM493.427 310.477C494.226 312.936 496.081 314.908 499.148 315.309C504.787 316.868 512.889 317.081 516.271 311.414C518.837 303.993 508.55 301.512 503.265 299.749C502.075 299.091 500.755 298.526 499.365 298.518C494.227 299.313 491.898 305.787 493.427 310.477ZM499.317 251.205C501.916 258.894 510.715 262.406 518.023 264.531C527.554 265.591 527.875 252.919 528.095 246.247C525.886 238.969 516.143 240.534 510.402 242.185C505.331 241.495 498.75 244.06 498.977 250.039C499.082 250.436 499.187 250.827 499.327 251.199L499.317 251.202L499.317 251.205ZM553.676 299.308C555.904 306.11 564.131 311.396 571.171 309.211C575.108 303.839 579.194 293.57 575.16 287.308C567.812 282.256 558.817 287.708 553.011 292.711C552.974 294.191 553.009 295.679 553.186 297.158C553.291 297.884 553.436 298.606 553.682 299.307L553.676 299.308ZM552.182 215.043C553.197 218.158 555.555 220.643 559.444 221.146C566.593 223.121 576.847 223.405 581.137 216.222C584.393 206.814 571.357 203.668 564.657 201.432C563.144 200.589 561.482 199.887 559.719 199.866C553.204 200.873 550.249 209.096 552.185 215.042L552.182 215.043ZM592.541 254.253C594.287 259.29 599.46 262.977 604.994 259.612C608.192 258.693 610.498 256.909 612.231 254.629C612.231 254.629 617.64 250.517 615.375 239.771C613.11 229.025 604.155 229.484 604.155 229.484C603.211 229.798 602.35 230.171 601.633 230.611L601.636 230.622C597.761 234.848 594.599 239.898 593.35 245.523C591.646 248.182 591.556 251.428 592.538 254.253L592.541 254.253Z" fill="#0BCFD2" fill-opacity="0.6"/>
<path d="M261.097 283.07C262.672 283.689 264.646 283.523 267.106 282.16C275.951 274.364 274.735 260.449 269.235 251.138C260.963 245.755 256.787 259.407 254.583 265.294C254.975 270.564 255.95 281.047 261.097 283.07ZM208.428 255.359C218.657 259.033 229.917 247.617 228.34 237.262C229.011 224.815 212.231 221.024 206.72 231.886C206.979 239.329 200.896 249.725 208.426 255.358L208.428 255.359ZM157.093 221.23C158.156 221.674 159.583 221.687 161.514 221.092C173.041 218.289 175.567 204.295 170.288 195.914C169.79 195.166 167.833 192.751 165.223 192.22C162.612 191.689 156.963 193.661 153.876 206.614C150.789 219.567 154.519 220.269 154.519 220.269C154.935 220.89 156.387 220.936 157.094 221.234L157.093 221.23ZM256.068 213.755C258.469 214.716 261.171 214.553 263.443 212.454C268.251 209.119 273.6 203.031 271.412 196.806C267.354 190.084 258.862 196.399 254.124 199.329C252.857 199.822 251.578 200.475 250.683 201.538C248.004 205.993 251.486 211.927 256.068 213.755ZM214.304 171.286C221.875 174.212 230.205 169.701 236.517 165.446C243.433 158.803 233.904 150.444 228.918 146.004C221.913 143.041 216.878 151.528 214.471 156.996C210.695 160.45 208.452 167.147 213.19 170.8C213.563 170.974 213.931 171.144 214.306 171.275L214.302 171.285L214.304 171.286ZM286.058 160.32C292.709 162.963 302.037 160.027 304.865 153.219C303.259 146.756 297.985 137.043 290.592 136.134C282.007 138.544 280.437 148.945 280.563 156.608C281.677 157.584 282.842 158.51 284.092 159.32C284.717 159.705 285.365 160.055 286.06 160.315L286.058 160.32ZM220.366 107.523C223.409 108.738 226.828 108.518 229.704 105.851C235.798 101.624 242.58 93.9283 239.808 86.0338C234.665 77.5103 223.903 85.5107 217.896 89.2271C216.28 89.8492 214.676 90.6763 213.532 92.0179C210.135 97.6671 214.56 105.201 220.367 107.521L220.366 107.523ZM276.325 101.62C281.313 103.503 287.457 101.889 288.415 95.4839C289.756 92.4384 289.861 89.5256 289.219 86.7338C289.219 86.7338 289.523 79.9469 279.818 74.8073C270.112 69.6677 264.732 76.8414 264.732 76.8414C264.369 77.7673 264.104 78.6681 263.983 79.5006L263.994 79.5046C264.76 85.1876 266.615 90.849 270.137 95.4095C271.089 98.4206 273.525 100.568 276.324 101.622L276.325 101.62Z" fill="#0BCFD2" fill-opacity="0.6"/>
<path d="M127.834 500.485L129.431 500.445C129.426 500.266 128.98 482.53 129.509 476.995C130.89 462.568 133.897 449.892 137.987 438.771C139.105 438.62 141.003 438.285 143.621 437.554C145.251 438.763 150.069 441.722 156.939 440.582C166.55 438.997 175.879 430.242 184.67 414.565L184.751 414.412L184.812 414.313L185.259 413.513L184.244 413.262C184.201 413.249 184.09 413.224 183.924 413.187L183.888 413.176L183.862 413.172C181.151 412.565 165.336 409.493 153.895 417.166C147.858 421.213 144.133 427.573 142.812 436.07C141.05 436.556 139.648 436.854 138.642 437.034C149.318 409.173 166.787 391.295 182.096 380.227C189.871 384.707 197.528 385.864 204.883 383.638C220.579 378.889 229.566 360.627 230.66 358.29C230.66 358.29 230.722 358.147 230.727 358.144L230.798 357.985L231.144 357.222L230.645 357.073L230.214 356.961L229.802 356.826C210.98 351.344 197.16 352.017 188.721 358.842C179.488 366.315 180.301 378.276 180.339 378.783L180.368 379.185L180.38 379.464C169.349 387.515 160.111 396.929 152.365 407.792C153.062 405.494 153.625 403.116 154.07 400.7C159.678 395.479 162.662 389.531 162.928 383.005C163.417 371.054 154.73 361.527 154.365 361.131L153.725 360.44L153.145 361.184C145.119 371.507 141.947 380.739 143.71 388.616C144.114 390.416 144.742 392.004 145.49 393.387C147.773 397.608 151.142 399.926 152.45 400.709C151.814 404.06 151.559 407.567 150.407 410.627C149.642 411.768 148.892 412.913 148.163 414.077C143.655 421.298 139.872 429.053 136.794 437.294C136.766 437.297 136.742 437.298 136.737 437.301L136.744 437.436C135.373 441.123 134.145 444.903 133.062 448.786C132.824 444.266 131.894 439.441 129.606 433.193C133.801 427.59 135.442 421.345 134.48 414.622C131.816 396.012 110.465 380.115 109.558 379.447L108.764 378.865L108.372 379.731L108.203 380.126L107.983 380.615C102.127 393.94 101.416 405.526 105.882 415.051C106.13 415.577 106.39 416.091 106.662 416.593C112.959 428.237 125.257 432.684 128.04 433.561C131.106 441.874 132.139 447.158 131.917 453.012L131.855 453.458C130.026 460.938 128.707 468.743 127.93 476.867C127.812 478.094 127.743 479.872 127.701 481.913C125.354 480.521 122.956 478.721 120.533 476.606C121.877 455.957 111.262 442.114 102.081 434.126C92.2199 425.543 78.4739 420.57 78.4739 420.57L78.2739 421.994C76.2422 436.215 79.1511 448.352 84.188 457.665C89.7474 467.945 97.897 474.787 104.867 477.194C111.978 479.651 117.857 478.326 119.517 477.853C122.268 480.239 125.004 482.25 127.676 483.738C127.605 490.892 127.835 499.981 127.847 500.508L127.834 500.485ZM173.821 427.312C172.813 425.93 170.615 425.597 168.882 425.565C170 424.863 171.14 424.125 172.31 423.353C173.672 423.192 175.862 423.172 176.627 423.758C175.701 425.016 174.761 426.204 173.826 427.31L173.821 427.312ZM169.665 431.699C169.37 430.659 168.827 429.813 168.039 429.185C167.069 428.412 165.902 428.092 164.901 427.978C165.597 427.572 166.304 427.153 167.02 426.717C168.287 426.596 172.141 426.39 173.088 428.163C171.953 429.45 170.812 430.637 169.663 431.706L169.665 431.699ZM155.779 439.076C154.348 436.765 152.205 435.584 150.703 435.014C151.634 434.639 152.606 434.228 153.624 433.78C155.024 433.969 158.174 434.762 160.187 437.947C158.938 438.428 157.697 438.778 156.454 438.99C156.226 439.028 156.003 439.052 155.779 439.076ZM163.071 429.022C163.713 428.954 165.897 428.834 167.376 430.022C168.106 430.609 168.567 431.451 168.759 432.523C167.762 433.402 166.763 434.19 165.765 434.9C164.07 432.337 160.693 431.551 158.81 431.309C160.174 430.614 161.593 429.852 163.071 429.022ZM155.244 433.043C155.966 432.708 156.704 432.357 157.465 431.982C157.52 431.983 162.833 432.37 164.89 435.5C163.656 436.313 162.421 436.987 161.186 437.54C159.498 434.767 157.043 433.568 155.242 433.051L155.244 433.043ZM170.098 422.871C170.771 420.955 171.607 417.479 170.744 413.732C172.328 413.657 173.841 413.676 175.239 413.738C175.831 416.436 174.923 418.915 174.446 419.949C172.957 420.985 171.507 421.957 170.093 422.873L170.098 422.871ZM168.541 423.87C167.068 424.8 165.64 425.657 164.259 426.465C165.116 424.207 166.41 419.537 165.085 414.375C166.638 414.086 168.176 413.903 169.663 413.796C170.869 418.726 168.791 423.347 168.541 423.87ZM162.724 427.337C161.679 427.927 160.654 428.487 159.664 429.01C160.699 426.238 162.815 419.615 161.182 415.34C162.129 415.04 163.08 414.792 164.035 414.585C165.688 420.971 163.021 426.722 162.724 427.337ZM160.172 415.68C162.006 420.361 158.649 428.735 158.226 429.758C157.099 430.331 156.014 430.857 154.966 431.351C155.994 428.837 158 422.795 156.197 417.466C157.484 416.752 158.815 416.165 160.172 415.68ZM145.366 436.937C146.509 436.574 147.762 436.144 149.115 435.631C150.029 435.852 152.79 436.71 154.575 439.182C150.365 439.41 147.142 437.989 145.371 436.935L145.366 436.937ZM177.253 422.898C176.5 422.335 175.184 422.187 174.043 422.186C176.286 420.651 178.623 418.975 181.043 417.151C179.795 419.202 178.527 421.118 177.253 422.898ZM176.002 418.859C176.402 417.546 176.714 415.747 176.346 413.8C178.691 413.956 180.633 414.24 181.918 414.465C179.893 416.033 177.917 417.502 176.005 418.864L176.002 418.859ZM155.253 418.019C157.176 424.119 153.785 431.432 153.503 432.021C152.518 432.463 151.57 432.873 150.665 433.241C151.378 431.152 152.411 426.684 150.335 422.14C151.565 420.759 152.957 419.534 154.519 418.489C154.765 418.326 155.01 418.175 155.258 418.016L155.253 418.019ZM149.558 423.057C151.536 427.946 149.748 432.755 149.316 433.783C147.429 434.519 145.746 435.095 144.255 435.556C145.135 430.558 146.912 426.379 149.558 423.057ZM154.731 394.323C155.38 393.639 156.767 392.416 157.913 392.36C158.08 392.355 158.231 392.376 158.382 392.421C157.32 394.347 155.944 396.207 154.267 397.981C154.449 396.761 154.601 395.539 154.736 394.321L154.731 394.323ZM158.884 391.465C158.567 391.34 158.231 391.279 157.867 391.3C156.783 391.347 155.689 392.06 154.895 392.72C154.978 391.82 155.047 390.928 155.107 390.041C156.031 389.184 158.341 387.28 160.385 387.471C160.025 388.836 159.522 390.169 158.886 391.47L158.884 391.465ZM160.632 386.416C158.606 386.155 156.495 387.496 155.193 388.552C155.249 387.491 155.289 386.445 155.318 385.411L155.355 385.434C155.378 385.397 157.565 381.753 161.076 381.273C161.093 381.821 161.097 382.377 161.072 382.936C161.024 384.113 160.877 385.278 160.632 386.416ZM155.119 373.845C155.817 372.098 156.969 370.038 157.829 369.543C158.56 370.984 159.253 372.591 159.81 374.326C157.565 375.298 156.13 377.172 155.309 378.591C155.268 376.923 155.202 375.333 155.112 373.843L155.119 373.845ZM153.498 373.437C153.587 374.88 153.658 376.423 153.705 378.046C152.865 376.392 151.126 374.241 147.547 372.588C148.007 371.624 148.513 370.642 149.08 369.65C150.811 370.465 152.695 372.501 153.498 373.437ZM149.618 368.729C150.505 367.242 151.509 365.724 152.632 364.171C152.846 365.831 153.145 368.458 153.381 371.718C152.398 370.686 151.004 369.409 149.618 368.729ZM160.125 375.356C160.556 376.893 160.875 378.515 161.01 380.199C158.356 380.526 156.406 382.356 155.349 383.63C155.364 382.659 155.361 381.703 155.353 380.768C155.366 380.724 156.819 376.877 160.127 375.361L160.125 375.356ZM153.682 386.69C152.201 385.363 149 383.088 144.613 383.303C144.665 382.111 144.817 380.89 145.082 379.643C150.952 380.196 153.368 383.575 153.749 384.169C153.738 384.999 153.712 385.837 153.682 386.69ZM157.339 368.614C156.414 369.145 155.581 370.419 154.97 371.598C154.719 368.152 154.404 365.407 154.186 363.737C155.038 364.852 156.206 366.53 157.339 368.614ZM147.101 373.557C153.072 376.316 153.744 380.438 153.757 380.619C153.762 381.234 153.766 381.856 153.762 382.489C152.49 381.122 149.861 379.065 145.33 378.6C145.746 376.969 146.333 375.287 147.101 373.557ZM144.588 384.377C149.479 384.108 152.875 387.338 153.618 388.119C153.545 389.564 153.45 391.034 153.313 392.508C152.084 391.221 149.504 389.277 145.362 389.553C145.232 389.133 145.11 388.695 145.013 388.245C144.732 386.997 144.597 385.706 144.585 384.373L144.588 384.377ZM145.725 390.605C150.336 390.421 152.673 393.297 153.167 393.987C152.989 395.653 152.769 397.318 152.49 398.978C150.847 397.879 147.485 395.193 145.721 390.608L145.725 390.605ZM183.272 379.185C183.372 379.112 183.472 379.04 183.575 378.972C184.648 378.222 185.725 377.5 186.795 376.8C188.296 377.48 192.602 379.624 195.838 383.075C191.724 382.832 187.524 381.534 183.276 379.182L183.272 379.185ZM200.389 355.332C202.108 360.415 197.473 367.952 196.753 369.075C195.446 369.764 194.131 370.493 192.791 371.254C194.038 368.483 196.428 362.299 195.949 356.503C197.338 356.012 198.816 355.619 200.389 355.332ZM214.007 363.084C216.486 362.713 222.94 362.61 224.696 364.903C223.719 366.359 222.586 367.917 221.298 369.493C218.207 365.661 213.417 364.694 210.364 364.496C211.622 363.986 212.835 363.517 214.012 363.081L214.007 363.084ZM197.292 383.118C194.197 379.446 189.916 377.101 187.849 376.115C188.772 375.525 189.689 374.956 190.602 374.402C191.717 374.424 196.154 375.018 204.05 382.119C201.831 382.779 199.575 383.114 197.292 383.118ZM205.214 381.738C198.72 375.794 194.371 374.018 192.077 373.52C193.088 372.924 194.093 372.35 195.089 371.794C196.936 371.868 202.577 372.671 210.68 379.102C208.966 380.157 207.143 381.058 205.214 381.738ZM196.756 370.886C198.522 369.937 200.252 369.056 201.948 368.235C202.039 368.235 210.722 368.521 216.253 374.87C214.821 376.178 213.279 377.406 211.634 378.501C204.768 372.978 199.593 371.346 196.756 370.886ZM203.581 367.455C205.027 366.777 206.438 366.147 207.812 365.561C209.176 365.472 216.634 365.239 220.598 370.338C219.506 371.626 218.318 372.905 217.029 374.141C212.613 369.08 206.479 367.792 203.579 367.463L203.581 367.455ZM212.421 361.978C213.494 360.342 214.826 357.749 214.563 355.212C216.326 355.435 218.156 355.736 220.055 356.109C219.964 357.801 218.452 359.443 217.841 360.04C216.16 360.598 214.346 361.245 212.426 361.975L212.421 361.978ZM210.578 362.695C209.052 363.303 207.458 363.965 205.818 364.688C207.1 362.328 208.892 358.165 207.882 354.74C209.663 354.759 211.525 354.874 213.469 355.083C213.946 358.207 211.346 361.728 210.576 362.691L210.578 362.695ZM204.149 365.433C202.34 366.26 200.473 367.155 198.564 368.132C200.144 365.326 202.842 359.588 201.457 355.155C203.128 354.905 204.896 354.767 206.764 354.745C208.121 358.521 205.162 363.8 204.151 365.438L204.149 365.433ZM225.304 363.987C223.56 362.154 219.693 361.93 216.936 362.033C222.063 360.26 226.081 359.227 228.39 358.699C227.779 359.878 226.74 361.767 225.299 363.989L225.304 363.987ZM219.801 359.405C220.413 358.564 220.999 357.484 221.107 356.328C222.776 356.68 224.502 357.092 226.271 357.56C224.569 357.989 222.372 358.59 219.798 359.4L219.801 359.405ZM194.907 356.897C195.351 363.894 191.44 371.658 191.154 372.206C190.103 372.829 189.043 373.469 187.981 374.141C188.897 371.687 189.72 367.357 187.563 361.845C188.139 361.23 188.776 360.637 189.472 360.073C191.069 358.778 192.886 357.723 194.909 356.902L194.907 356.897ZM181.755 378.308C181.755 378.308 181.741 368.8 186.764 362.743C189.016 369.005 187.156 373.623 186.34 375.186C185.136 375.964 183.927 376.776 182.711 377.621C182.389 377.844 182.074 378.081 181.755 378.308ZM128.662 431.37C128.194 430.18 127.684 428.935 127.115 427.636C127.776 424.352 130.858 422.854 132.509 422.276C131.929 425.463 130.638 428.501 128.657 431.372L128.662 431.37ZM115.791 401.922C115.215 396.935 118.576 393.263 120.19 391.742C121.692 393.421 123.201 395.247 124.63 397.195C122.725 398.469 118.888 401.574 117.552 406.636C116.936 405.048 116.344 403.471 115.791 401.922ZM114.953 399.532C114.137 397.161 113.401 394.88 112.751 392.759C112.719 388.957 113.823 386.851 114.487 385.928C116.027 387.362 117.732 389.046 119.472 390.942C117.983 392.323 115.361 395.311 114.958 399.529L114.953 399.532ZM111.881 389.883C110.858 386.412 110.108 383.557 109.643 381.723C110.598 382.491 112.013 383.672 113.686 385.197C113.107 385.965 112.26 387.448 111.881 389.883ZM113.356 399.808C109.483 396.278 105.991 395.717 104.796 395.636C105.061 393.917 105.433 392.152 105.919 390.35C107.181 390.419 109.697 390.98 111.6 394.454C112.134 396.159 112.724 397.955 113.356 399.808ZM114.173 402.148C114.784 403.872 115.44 405.633 116.131 407.405C111.19 403.761 106.309 403.589 104.391 403.686C104.25 401.441 104.332 399.106 104.639 396.691C105.686 396.755 109.846 397.33 114.169 402.15L114.173 402.148ZM116.943 409.432C117.702 411.295 118.501 413.166 119.341 415.009C114.178 411.885 107.867 412.826 106.513 413.079C105.439 410.466 104.763 407.692 104.478 404.767C106.442 404.687 111.872 404.932 116.941 409.44L116.943 409.432ZM122.045 416.995C122.405 410.812 128.12 407.503 130.152 406.519C131.152 408.773 131.935 411.095 132.403 413.461C130.229 414.563 125.571 417.271 124.006 420.923C123.626 420.153 123.238 419.369 122.826 418.561C122.563 418.042 122.303 417.516 122.043 416.99L122.045 416.995ZM132.698 421.09C131.232 421.518 127.792 422.846 126.459 426.142C125.912 424.917 125.31 423.636 124.668 422.304C125.491 418.714 130.212 415.821 132.586 414.573C132.601 414.656 132.618 414.744 132.633 414.827C132.938 416.972 132.957 419.058 132.698 421.09ZM125.075 426.958C123.034 426.31 121.05 427.171 119.867 428.053C117.789 426.777 115.573 425.169 113.488 423.163C115.633 422.433 120.811 420.966 123.645 423.852C124.151 424.924 124.631 425.956 125.075 426.958ZM129.708 405.553C127.7 406.524 122.413 409.583 121.209 415.235C120.166 413.005 119.189 410.727 118.274 408.452C119.06 402.845 123.333 399.37 125.267 398.069C126.934 400.423 128.462 402.936 129.708 405.553ZM108.361 383.162C108.9 385.246 109.701 388.195 110.74 391.664C109.095 389.911 107.373 389.406 106.205 389.298C106.785 387.299 107.505 385.256 108.358 383.157L108.361 383.162ZM107.059 414.324C107.018 414.249 106.989 414.161 106.953 414.084C108.774 413.796 115.559 413.048 120.263 416.971C120.636 417.751 121.019 418.526 121.401 419.289C121.928 420.332 122.428 421.334 122.903 422.314C119.336 420.121 114.396 421.659 112.645 422.322C110.499 420.112 108.534 417.466 107.059 414.324ZM120.883 428.655C121.928 427.987 123.821 427.205 125.727 428.442C126.196 429.522 126.625 430.562 127.022 431.566C125.585 431.028 123.375 430.09 120.886 428.66L120.883 428.655ZM114.611 471.136C114.422 469.632 114.328 465.761 117.845 463.52C118.569 467.122 118.906 471.007 118.732 475.192C117.36 473.922 115.986 472.568 114.611 471.136ZM86.9207 433.846C86.7378 432.757 86.3491 429.27 88.3899 426.699C91.0539 428.162 94.053 430.031 97.1043 432.333C93.6528 437.406 93.1161 441.345 93.1999 443.585C90.8793 440.112 88.7645 436.807 86.9182 433.841L86.9207 433.846ZM85.8231 435.179C87.526 437.913 89.4428 440.919 91.5361 444.072C89.3601 443.546 85.6965 443.272 80.6835 445.032C79.8274 441.701 79.2552 438.143 79.0389 434.381C81.9426 433.574 84.548 434.547 85.8231 435.179ZM92.4833 445.487C93.9638 447.687 95.525 449.946 97.1461 452.215C94.9243 451.671 90.537 451.371 84.0315 454.35C82.8229 451.779 81.7823 449.014 80.9648 446.068C86.9093 443.968 90.868 444.888 92.488 445.485L92.4833 445.487ZM99.6654 452.883C99.5297 451.108 99.909 446.351 106.541 441.061C108.349 443.138 110.098 445.453 111.683 448.014C105.244 451.721 103.933 455.933 103.811 458.43C102.397 456.6 101.011 454.743 99.6654 452.883ZM108.087 466.336C105.143 465.813 99.6614 465.541 94.6671 469.072C92.8086 467.362 90.9962 465.378 89.3044 463.135C96.2958 459.688 102.194 460.91 104.077 461.455C105.393 463.114 106.731 464.748 108.087 466.336ZM109.254 467.687C110.292 468.877 111.336 470.034 112.39 471.155C110.216 471.137 106.734 471.759 104.714 475.5C101.745 474.403 98.5649 472.48 95.4921 469.802C101.009 466.049 107.274 467.188 109.261 467.689L109.254 467.687ZM110.09 466.15C109.895 465.431 109.124 461.272 116.483 458.334C116.912 459.654 117.289 461.014 117.606 462.418C114.145 464.424 113.496 467.787 113.489 469.948C112.348 468.723 111.215 467.457 110.09 466.15ZM116.143 457.324C110.322 459.63 109.088 462.831 108.947 464.81C107.595 463.208 106.256 461.562 104.943 459.884C104.698 458.423 104.519 453.361 112.237 448.926C113.744 451.488 115.079 454.281 116.147 457.322L116.143 457.324ZM100.68 435.223C102.378 436.693 104.124 438.374 105.828 440.258C100.222 444.745 98.833 448.878 98.5992 451.405C97.1381 449.364 94.3799 445.34 94.3799 445.34C94.364 445.289 92.8964 440.445 97.9483 432.985C98.8585 433.693 99.7723 434.442 100.675 435.226L100.68 435.223ZM87.4334 426.186C86.0324 428.023 85.6918 430.195 85.6828 431.848C83.3367 428.026 81.5292 424.93 80.4399 423.028C81.9698 423.571 84.4532 424.61 87.4287 426.189L87.4334 426.186ZM84.8471 433.61C83.3465 433.088 81.2709 432.713 78.985 433.295C78.8733 430.41 78.9726 427.41 79.314 424.298C80.5247 426.413 82.4184 429.668 84.8497 433.614L84.8471 433.61ZM84.4893 455.308C92.8689 451.479 97.5224 453.381 98.2199 453.707C99.7675 455.84 101.365 457.976 103 460.08C100.193 459.507 94.8684 459.144 88.6679 462.261C87.1522 460.154 85.7414 457.825 84.4893 455.308ZM105.737 475.844C107.943 471.954 111.928 472.071 113.455 472.282C114.894 473.777 116.342 475.2 117.79 476.52C115.6 476.977 111.037 477.518 105.737 475.844Z" fill="#0BCFD2" fill-opacity="0.6"/>
<path d="M650.895 476.91L652.492 476.955C652.496 476.777 652.992 459.041 653.813 453.542C655.957 439.209 659.632 426.71 664.306 415.821C665.431 415.73 667.344 415.496 669.997 414.905C671.56 416.199 676.215 419.409 683.136 418.635C692.818 417.562 702.597 409.314 712.207 394.126L712.296 393.978L712.363 393.881L712.851 393.107L711.851 392.802C711.809 392.787 711.7 392.756 711.536 392.71L711.5 392.697L711.474 392.692C708.8 391.942 693.17 388.035 681.338 395.09C675.095 398.811 671.037 404.965 669.268 413.38C667.483 413.772 666.066 413.995 665.052 414.122C677.191 386.867 695.583 369.94 711.458 359.699C718.985 364.586 726.57 366.147 734.033 364.314C749.958 360.404 759.901 342.644 761.117 340.368C761.117 340.368 761.187 340.229 761.192 340.227L761.272 340.071L761.657 339.328L761.167 339.153L760.743 339.018L760.338 338.862C741.833 332.389 727.997 332.328 719.208 338.696C709.591 345.669 709.769 357.656 709.78 358.164L709.788 358.567L709.785 358.846C698.343 366.301 688.618 375.212 680.307 385.649C681.125 383.391 681.813 381.047 682.386 378.657C688.263 373.741 691.559 367.96 692.17 361.457C693.292 349.549 685.123 339.574 684.779 339.159L684.176 338.436L683.558 339.148C674.996 349.031 671.338 358.081 672.681 366.041C672.989 367.86 673.532 369.479 674.206 370.9C676.261 375.235 679.503 377.729 680.768 378.58C679.954 381.892 679.514 385.382 678.202 388.376C677.377 389.475 676.567 390.579 675.778 391.702C670.893 398.674 666.704 406.217 663.193 414.284C663.165 414.285 663.141 414.285 663.136 414.287L663.136 414.423C661.572 418.032 660.144 421.742 658.857 425.561C658.859 421.035 658.186 416.168 656.233 409.807C660.719 404.435 662.689 398.285 662.085 391.521C660.412 372.796 639.934 355.789 639.064 355.074L638.302 354.45L637.864 355.295L637.675 355.679L637.429 356.156C630.874 369.152 629.55 380.684 633.505 390.432C633.725 390.971 633.957 391.498 634.201 392.014C639.872 403.975 651.917 409.068 654.65 410.091C657.27 418.555 658.022 423.887 657.489 429.721L657.404 430.162C655.181 437.535 653.45 445.259 652.243 453.331C652.06 454.55 651.897 456.321 651.747 458.357C649.477 456.843 647.178 454.918 644.871 452.678C647.307 432.129 637.442 417.742 628.697 409.279C619.305 400.185 605.842 394.49 605.842 394.49L605.567 395.901C602.784 409.995 605.045 422.269 609.581 431.836C614.587 442.396 622.363 449.661 629.195 452.434C636.166 455.265 642.107 454.254 643.789 453.869C646.41 456.397 649.036 458.551 651.625 460.179C651.175 467.319 650.922 476.407 650.906 476.934L650.895 476.91ZM700.698 406.279C699.764 404.846 697.587 404.397 695.858 404.273C697.011 403.631 698.189 402.955 699.399 402.246C700.768 402.157 702.955 402.253 703.688 402.879C702.697 404.087 701.696 405.222 700.703 406.277L700.698 406.279ZM696.315 410.44C696.075 409.386 695.578 408.512 694.824 407.843C693.897 407.02 692.748 406.638 691.755 406.472C692.471 406.103 693.199 405.722 693.937 405.325C695.21 405.27 699.069 405.27 699.92 407.091C698.719 408.315 697.517 409.44 696.313 410.447L696.315 410.44ZM682.057 417.07C680.75 414.686 678.674 413.393 677.204 412.745C678.153 412.419 679.145 412.06 680.186 411.667C681.574 411.93 684.678 412.889 686.519 416.176C685.247 416.59 683.988 416.874 682.736 417.02C682.506 417.046 682.282 417.058 682.057 417.07ZM689.873 407.417C690.517 407.383 692.704 407.379 694.118 408.644C694.816 409.269 695.232 410.133 695.367 411.214C694.324 412.039 693.285 412.773 692.251 413.429C690.694 410.78 687.363 409.816 685.496 409.474C686.895 408.853 688.352 408.168 689.873 407.417ZM681.843 411.017C682.582 410.72 683.337 410.41 684.117 410.075C684.172 410.079 689.457 410.747 691.345 413.982C690.07 414.729 688.8 415.336 687.538 415.823C686 412.965 683.612 411.636 681.841 411.025L681.843 411.017ZM697.215 401.647C697.989 399.769 699.008 396.342 698.346 392.556C699.931 392.565 701.441 392.663 702.834 392.8C703.282 395.525 702.244 397.953 701.712 398.96C700.171 399.915 698.671 400.809 697.21 401.649L697.215 401.647ZM695.608 402.562C694.087 403.413 692.616 404.193 691.194 404.926C692.17 402.717 693.709 398.123 692.66 392.897C694.226 392.691 695.771 392.59 697.263 392.562C698.205 397.549 695.885 402.053 695.608 402.562ZM689.615 405.716C688.54 406.249 687.487 406.754 686.471 407.224C687.651 404.511 690.115 398.009 688.711 393.654C689.673 393.404 690.636 393.208 691.6 393.051C692.912 399.515 689.945 405.117 689.615 405.716ZM687.684 393.94C689.268 398.712 685.471 406.896 684.995 407.895C683.839 408.407 682.728 408.875 681.655 409.313C682.815 406.857 685.139 400.929 683.621 395.513C684.944 394.868 686.304 394.352 687.684 393.94ZM671.772 414.382C672.933 414.079 674.207 413.717 675.585 413.276C676.486 413.545 679.198 414.549 680.85 417.111C676.633 417.116 673.49 415.527 671.777 414.38L671.772 414.382ZM704.359 402.054C703.637 401.452 702.33 401.234 701.191 401.172C703.513 399.758 705.935 398.209 708.449 396.516C707.093 398.498 705.726 400.344 704.359 402.054ZM703.324 397.954C703.793 396.664 704.2 394.884 703.935 392.92C706.269 393.201 708.193 393.587 709.465 393.88C707.36 395.339 705.309 396.7 703.327 397.959L703.324 397.954ZM682.649 396.015C684.246 402.208 680.471 409.331 680.159 409.904C679.151 410.293 678.183 410.652 677.26 410.972C678.083 408.924 679.351 404.517 677.519 399.869C678.82 398.555 680.276 397.405 681.891 396.445C682.145 396.295 682.398 396.157 682.654 396.012L682.649 396.015ZM676.695 400.743C678.41 405.73 676.37 410.438 675.884 411.441C673.96 412.076 672.249 412.563 670.737 412.944C671.88 408 673.876 403.921 676.695 400.743ZM683.384 372.325C684.068 371.676 685.518 370.528 686.665 370.533C686.832 370.537 686.982 370.566 687.131 370.619C685.969 372.486 684.496 374.27 682.726 375.953C682.974 374.744 683.19 373.532 683.389 372.322L683.384 372.325ZM687.682 369.691C687.373 369.549 687.041 369.47 686.676 369.472C685.591 369.461 684.461 370.115 683.632 370.732C683.763 369.838 683.88 368.951 683.986 368.068C684.955 367.261 687.363 365.482 689.393 365.782C688.962 367.125 688.389 368.43 687.685 369.696L687.682 369.691ZM689.697 364.742C687.687 364.373 685.507 365.601 684.151 366.586C684.264 365.53 684.36 364.487 684.443 363.456L684.478 363.481C684.503 363.445 686.881 359.923 690.412 359.629C690.4 360.177 690.375 360.733 690.32 361.289C690.209 362.463 690.002 363.618 689.697 364.742ZM684.857 351.896C685.647 350.188 686.907 348.192 687.792 347.743C688.446 349.221 689.053 350.863 689.517 352.625C687.223 353.476 685.69 355.271 684.796 356.645C684.843 354.977 684.862 353.386 684.85 351.893L684.857 351.896ZM683.26 351.402C683.273 352.848 683.262 354.393 683.223 356.016C682.472 354.319 680.849 352.079 677.363 350.239C677.874 349.301 678.43 348.346 679.049 347.386C680.735 348.292 682.508 350.425 683.26 351.402ZM679.635 346.495C680.6 345.058 681.683 343.595 682.888 342.103C683.012 343.773 683.172 346.411 683.234 349.68C682.308 348.597 680.984 347.248 679.635 346.495ZM689.776 353.67C690.125 355.228 690.358 356.864 690.404 358.553C687.736 358.738 685.691 360.463 684.569 361.68C684.634 360.71 684.683 359.755 684.724 358.821C684.739 358.778 686.395 355.014 689.778 353.675L689.776 353.67ZM682.742 364.646C681.333 363.243 678.257 360.801 673.865 360.783C673.98 359.596 674.196 358.384 674.528 357.153C680.36 358.017 682.593 361.519 682.942 362.132C682.887 362.961 682.817 363.796 682.742 364.646ZM687.352 346.79C686.4 347.27 685.501 348.499 684.828 349.644C684.76 346.189 684.591 343.431 684.462 341.752C685.253 342.911 686.331 344.648 687.352 346.79ZM676.866 351.183C682.683 354.254 683.135 358.406 683.138 358.588C683.111 359.202 683.081 359.824 683.044 360.455C681.846 359.023 679.331 356.829 674.831 356.124C675.332 354.518 676.008 352.87 676.866 351.183ZM673.783 361.855C678.682 361.845 681.901 365.251 682.602 366.07C682.453 367.509 682.279 368.972 682.065 370.437C680.905 369.087 678.433 367.008 674.282 367.064C674.174 366.637 674.076 366.194 674.002 365.739C673.787 364.478 673.721 363.182 673.78 361.85L673.783 361.855ZM674.588 368.134C679.202 368.195 681.383 371.191 681.841 371.906C681.575 373.56 681.266 375.211 680.9 376.854C679.317 375.669 676.102 372.809 674.583 368.137L674.588 368.134ZM712.687 358.721C712.791 358.654 712.895 358.587 713.002 358.525C714.113 357.833 715.227 357.169 716.332 356.527C717.795 357.285 721.981 359.655 725.03 363.272C720.935 362.812 716.81 361.292 712.692 358.719L712.687 358.721ZM731.046 335.81C732.492 340.977 727.465 348.258 726.686 349.341C725.345 349.959 723.993 350.618 722.614 351.307C724.006 348.605 726.721 342.557 726.549 336.744C727.963 336.327 729.46 336.013 731.046 335.81ZM744.233 344.273C746.728 344.034 753.179 344.273 754.811 346.657C753.758 348.058 752.544 349.555 751.175 351.059C748.291 347.069 743.559 345.849 740.521 345.49C741.804 345.047 743.04 344.643 744.238 344.27L744.233 344.273ZM726.48 363.393C723.583 359.562 719.433 356.992 717.421 355.899C718.375 355.358 719.32 354.839 720.261 354.334C721.373 354.414 725.773 355.243 733.281 362.753C731.03 363.295 728.76 363.51 726.48 363.393ZM734.463 362.434C728.294 356.154 724.045 354.151 721.78 353.531C722.822 352.99 723.856 352.47 724.88 351.967C726.72 352.139 732.311 353.241 740.062 360.092C738.294 361.054 736.426 361.857 734.463 362.434ZM726.593 351.149C728.407 350.295 730.181 349.507 731.918 348.778C732.009 348.782 740.665 349.528 745.852 356.161C744.352 357.392 742.747 358.536 741.047 359.543C734.482 353.663 729.402 351.759 726.593 351.149ZM733.591 348.085C735.07 347.484 736.512 346.93 737.916 346.418C739.283 346.401 746.742 346.564 750.43 351.867C749.272 353.094 748.018 354.308 746.665 355.475C742.523 350.187 736.466 348.575 733.588 348.092L733.591 348.085ZM742.708 343.084C743.867 341.508 745.334 338.989 745.206 336.442C746.955 336.758 748.766 337.155 750.643 337.629C750.462 339.313 748.865 340.873 748.223 341.437C746.515 341.904 744.67 342.455 742.713 343.082L742.708 343.084ZM740.83 343.703C739.274 344.228 737.647 344.805 735.971 345.44C737.376 343.151 739.386 339.089 738.56 335.616C740.337 335.73 742.19 335.942 744.12 336.255C744.431 339.4 741.649 342.778 740.828 343.698L740.83 343.703ZM734.264 346.096C732.415 346.825 730.502 347.62 728.545 348.495C730.271 345.776 733.27 340.189 732.121 335.689C733.804 335.529 735.577 335.485 737.443 335.562C738.597 339.404 735.363 344.519 734.267 346.101L734.264 346.096ZM755.466 345.774C753.823 343.851 749.973 343.422 747.214 343.378C752.428 341.88 756.495 341.061 758.829 340.657C758.156 341.802 757.018 343.634 755.461 345.776L755.466 345.774ZM750.214 340.906C750.87 340.099 751.512 339.052 751.682 337.903C753.33 338.343 755.032 338.846 756.773 339.407C755.051 339.746 752.825 340.229 750.212 340.901L750.214 340.906ZM725.488 337.082C725.561 344.092 721.243 351.638 720.929 352.17C719.846 352.737 718.754 353.32 717.658 353.934C718.703 351.533 719.754 347.252 717.892 341.633C718.501 341.049 719.168 340.491 719.892 339.965C721.556 338.757 723.427 337.799 725.49 337.086L725.488 337.082ZM711.219 357.765C711.219 357.765 711.709 348.269 717.047 342.488C718.964 348.86 716.861 353.373 715.964 354.89C714.72 355.604 713.469 356.35 712.21 357.13C711.877 357.335 711.55 357.555 711.219 357.765ZM655.387 407.937C654.983 406.724 654.54 405.453 654.041 404.126C654.874 400.881 658.031 399.549 659.711 399.06C658.963 402.211 657.513 405.176 655.382 407.939L655.387 407.937ZM644.096 377.847C643.786 372.837 647.336 369.348 649.028 367.915C650.439 369.671 651.849 371.575 653.174 373.596C651.203 374.767 647.207 377.664 645.605 382.648C645.073 381.03 644.566 379.424 644.096 377.847ZM643.386 375.416C642.697 373.005 642.082 370.689 641.546 368.536C641.716 364.738 642.93 362.693 643.642 361.807C645.104 363.321 646.717 365.093 648.354 367.078C646.794 368.378 644.017 371.223 643.391 375.414L643.386 375.416ZM640.829 365.618C639.992 362.098 639.395 359.207 639.028 357.351C639.941 358.169 641.291 359.423 642.881 361.035C642.262 361.771 641.338 363.206 640.829 365.618ZM641.777 375.607C638.096 371.876 634.639 371.132 633.45 370.988C633.805 369.285 634.271 367.542 634.852 365.768C636.108 365.904 638.591 366.597 640.307 370.167C640.75 371.898 641.244 373.724 641.777 375.607ZM642.468 377.987C642.987 379.741 643.548 381.534 644.145 383.34C639.404 379.44 634.538 379.009 632.619 379.005C632.597 376.755 632.803 374.427 633.237 372.032C634.279 372.152 638.403 372.946 642.464 377.989L642.468 377.987ZM644.848 385.408C645.507 387.309 646.206 389.219 646.947 391.104C641.957 387.711 635.605 388.316 634.239 388.497C633.306 385.83 632.778 383.024 632.648 380.088C634.613 380.112 640.023 380.645 644.845 385.416L644.848 385.408ZM649.542 393.231C650.229 387.076 656.112 384.075 658.193 383.2C659.072 385.503 659.731 387.863 660.072 390.251C657.843 391.237 653.048 393.693 651.292 397.257C650.953 396.468 650.607 395.664 650.238 394.836C650.004 394.304 649.772 393.765 649.54 393.226L649.542 393.231ZM659.962 397.885C658.476 398.235 654.97 399.378 653.465 402.6C652.983 401.347 652.45 400.036 651.88 398.672C652.891 395.13 657.76 392.492 660.197 391.372C660.207 391.455 660.219 391.544 660.229 391.628C660.42 393.785 660.329 395.87 659.962 397.885ZM652.04 403.34C650.035 402.585 648.009 403.339 646.78 404.158C644.772 402.773 642.645 401.05 640.67 398.936C642.851 398.321 648.099 397.131 650.775 400.163C651.225 401.26 651.648 402.316 652.04 403.34ZM657.801 382.212C655.744 383.075 650.303 385.849 648.8 391.429C647.877 389.147 647.022 386.82 646.229 384.5C647.311 378.942 651.763 375.699 653.763 374.503C655.302 376.941 656.696 379.532 657.801 382.212ZM637.671 358.72C638.099 360.83 638.742 363.817 639.596 367.336C638.046 365.498 636.353 364.902 635.193 364.733C635.878 362.768 636.705 360.765 637.669 358.715L637.671 358.72ZM634.718 389.768C634.682 389.691 634.657 389.603 634.626 389.523C636.459 389.333 643.274 388.946 647.763 393.113C648.095 393.911 648.436 394.706 648.777 395.488C649.248 396.557 649.694 397.584 650.117 398.587C646.67 396.209 641.657 397.483 639.873 398.051C637.846 395.732 636.025 392.984 634.718 389.768ZM647.763 404.813C648.842 404.201 650.774 403.521 652.611 404.857C653.022 405.96 653.396 407.022 653.739 408.045C652.333 407.431 650.175 406.378 647.766 404.818L647.763 404.813ZM639.247 446.901C639.138 445.389 639.25 441.519 642.88 439.467C643.412 443.103 643.542 447.001 643.147 451.171C641.844 449.829 640.543 448.405 639.247 446.901ZM613.573 408.195C613.448 407.098 613.245 403.595 615.419 401.137C618.002 402.738 620.898 404.764 623.823 407.224C620.107 412.107 619.362 416.012 619.327 418.253C617.194 414.662 615.257 411.25 613.571 408.19L613.573 408.195ZM612.406 409.468C613.962 412.289 615.717 415.392 617.64 418.652C615.495 418.011 611.851 417.544 606.751 419.035C606.073 415.663 605.69 412.08 605.674 408.312C608.617 407.66 611.167 408.77 612.406 409.468ZM618.51 420.115C619.872 422.39 621.311 424.729 622.81 427.081C620.62 426.42 616.255 425.887 609.601 428.517C608.53 425.886 607.638 423.069 606.977 420.084C613.025 418.303 616.929 419.431 618.515 420.113L618.51 420.115ZM625.29 427.881C625.249 426.101 625.88 421.371 632.783 416.441C634.478 418.61 636.102 421.015 637.549 423.657C630.923 427.017 629.391 431.153 629.136 433.64C627.821 431.738 626.535 429.811 625.29 427.881ZM632.986 441.762C630.074 441.084 624.615 440.521 619.44 443.783C617.675 441.976 615.971 439.899 614.4 437.57C621.565 434.498 627.39 436.031 629.241 436.676C630.467 438.402 631.717 440.105 632.986 441.762ZM634.08 443.173C635.053 444.417 636.034 445.627 637.028 446.802C634.858 446.669 631.348 447.106 629.133 450.735C626.225 449.481 623.152 447.392 620.226 444.555C625.934 441.1 632.13 442.57 634.087 443.176L634.08 443.173ZM634.996 441.683C634.84 440.954 634.291 436.76 641.795 434.217C642.153 435.558 642.458 436.935 642.7 438.355C639.137 440.174 638.311 443.498 638.19 445.656C637.115 444.372 636.05 443.047 634.996 441.683ZM641.509 433.19C635.574 435.184 634.173 438.315 633.926 440.284C632.661 438.612 631.412 436.898 630.189 435.153C630.022 433.68 630.112 428.617 638.054 424.597C639.423 427.235 640.608 430.095 641.514 433.188L641.509 433.19ZM627.24 410.301C628.858 411.858 630.512 413.629 632.114 415.601C626.278 419.784 624.672 423.838 624.304 426.349C622.953 424.234 620.412 420.069 620.412 420.069C620.399 420.017 619.19 415.102 624.631 407.921C625.502 408.676 626.375 409.472 627.235 410.303L627.24 410.301ZM614.491 400.573C612.995 402.333 612.54 404.484 612.443 406.135C610.303 402.193 608.662 399.006 607.675 397.049C609.174 397.672 611.599 398.841 614.487 400.576L614.491 400.573ZM611.515 407.849C610.044 407.249 607.991 406.765 605.678 407.224C605.719 404.337 605.978 401.347 606.484 398.257C607.58 400.434 609.299 403.785 611.517 407.854L611.515 407.849ZM610.007 429.498C618.578 426.119 623.124 428.265 623.803 428.628C625.235 430.84 626.718 433.058 628.239 435.245C625.466 434.525 620.168 433.88 613.811 436.663C612.409 434.478 611.124 432.078 610.007 429.498ZM630.136 451.132C632.545 447.365 636.518 447.693 638.031 447.985C639.389 449.554 640.76 451.052 642.135 452.447C639.924 452.787 635.339 453.085 630.136 451.132Z" fill="#0BCFD2" fill-opacity="0.6"/>
<path d="M129.347 500.348L129.117 499.031C129.264 499.007 143.894 496.459 148.35 495.116C159.963 491.613 169.872 487.063 178.328 481.88C178.267 480.937 178.231 479.324 178.4 477.056C177.14 475.917 173.92 472.449 173.727 466.624C173.449 458.476 179.101 449.383 190.522 439.593L190.635 439.501L190.706 439.435L191.289 438.937L191.662 439.728C191.68 439.762 191.718 439.848 191.776 439.978L191.791 440.006L191.799 440.027C192.742 442.152 197.862 454.626 193.445 465.276C191.116 470.895 186.508 474.997 179.751 477.476C179.642 479.002 179.628 480.202 179.645 481.057C200.756 467.719 212.559 450.447 219.127 436.065C214.172 430.42 211.965 424.326 212.584 417.925C213.902 404.264 227.413 393.889 229.152 392.607C229.152 392.607 229.258 392.532 229.26 392.528L229.379 392.444L229.948 392.035L230.152 392.42L230.315 392.755L230.494 393.071C238.086 407.617 239.804 419.069 235.589 427.115C230.973 435.92 221.023 437.217 220.601 437.27L220.266 437.312L220.035 437.348C215.24 447.723 209.032 456.85 201.389 464.991C203.161 464.042 205.02 463.189 206.93 462.427C210.293 456.967 214.684 453.541 219.997 452.252C229.724 449.887 238.971 455.451 239.356 455.686L240.028 456.098L239.513 456.696C232.359 464.978 225.304 469.097 218.549 468.945C217.006 468.909 215.599 468.654 214.341 468.267C210.502 467.087 208.046 464.703 207.189 463.758C204.543 464.831 201.706 465.616 199.384 467.064C198.574 467.879 197.757 468.683 196.922 469.472C191.736 474.358 185.993 478.737 179.735 482.616C179.737 482.64 179.741 482.66 179.739 482.664L179.627 482.681C176.826 484.411 173.926 486.04 170.917 487.566C174.666 487.019 178.778 486.99 184.282 487.842C188.191 483.478 193.047 481.106 198.723 480.791C214.433 479.92 230.989 494.831 231.685 495.465L232.294 496.021L231.647 496.485L231.352 496.689L230.986 496.95C221.012 503.944 211.621 506.431 203.07 504.33C202.597 504.213 202.132 504.084 201.676 503.944C191.085 500.689 185.414 491.327 184.238 489.186C176.912 488.036 172.405 488.056 167.637 489.201L167.281 489.325C161.443 492.054 155.254 494.418 148.714 496.39C147.726 496.689 146.279 497.038 144.611 497.407C146.139 499.105 148.01 500.777 150.143 502.418C166.87 497.923 179.975 504.36 188.039 510.583C196.703 517.266 203.043 527.73 203.043 527.73L201.908 528.128C190.57 532.131 180.131 531.737 171.66 529.134C162.31 526.26 155.356 520.696 152.236 515.371C149.05 509.939 149.171 504.897 149.287 503.457C146.878 501.591 144.777 499.676 143.117 497.728C137.257 498.961 129.76 500.265 129.326 500.342L129.347 500.348ZM181.844 450.59C183.144 451.19 183.778 452.94 184.089 454.356C184.481 453.324 184.9 452.267 185.341 451.179C185.249 450.035 184.906 448.235 184.3 447.703C183.419 448.67 182.599 449.636 181.845 450.586L181.844 450.59ZM178.926 454.721C179.828 454.793 180.612 455.099 181.257 455.643C182.05 456.311 182.505 457.217 182.763 458.02C182.982 457.382 183.209 456.733 183.449 456.074C183.341 455.014 182.876 451.817 181.266 451.332C180.396 452.474 179.61 453.605 178.92 454.724L178.926 454.721ZM175.154 467.328C177.285 468.124 178.607 469.688 179.321 470.827C179.476 470.002 179.654 469.136 179.854 468.227C179.469 467.11 178.3 464.654 175.356 463.525C175.166 464.629 175.083 465.705 175.113 466.761C175.119 466.954 175.136 467.141 175.154 467.328ZM182.206 459.693C182.157 459.155 181.897 457.343 180.679 456.324C180.077 455.822 179.31 455.581 178.399 455.6C177.842 456.563 177.359 457.512 176.94 458.447C179.322 459.418 180.522 462.06 181.03 463.565C181.376 462.332 181.768 461.042 182.206 459.693ZM180.192 466.776C180.349 466.129 180.516 465.466 180.699 464.78C180.689 464.735 179.498 460.438 176.591 459.264C176.127 460.41 175.776 461.535 175.526 462.639C178.079 463.568 179.467 465.386 180.187 466.779L180.192 466.776ZM186.101 452.916C187.562 452.049 190.278 450.792 193.494 450.884C193.295 449.572 193.032 448.333 192.751 447.197C190.439 447.154 188.554 448.306 187.784 448.868C187.179 450.259 186.619 451.609 186.099 452.92L186.101 452.916ZM185.536 454.358C185.015 455.719 184.546 457.032 184.11 458.298C185.822 457.223 189.442 455.395 193.897 455.634C193.878 454.312 193.776 453.02 193.62 451.782C189.375 451.602 185.924 454.066 185.536 454.358ZM183.646 459.701C183.334 460.656 183.043 461.588 182.776 462.487C184.881 461.182 189.969 458.358 193.746 458.996C193.837 458.17 193.884 457.348 193.897 456.531C188.385 456.223 184.103 459.356 183.646 459.701ZM193.633 459.881C189.49 459.144 183.169 463.275 182.399 463.79C182.114 464.809 181.86 465.786 181.627 466.727C183.521 465.47 188.151 462.832 192.82 463.436C193.195 462.262 193.458 461.073 193.633 459.881ZM178.62 475.523C178.73 474.525 178.877 473.426 179.076 472.231C178.744 471.518 177.586 469.393 175.265 468.334C175.769 471.827 177.465 474.238 178.621 475.518L178.62 475.523ZM184.902 447.048C185.488 447.574 185.826 448.63 186.015 449.566C186.905 447.473 187.897 445.28 188.996 442.994C187.518 444.356 186.154 445.71 184.902 447.048ZM188.423 447.411C189.435 446.868 190.86 446.317 192.518 446.299C192.005 444.4 191.453 442.853 191.057 441.835C190.102 443.754 189.222 445.617 188.418 447.41L188.423 447.411ZM192.522 464.301C187.199 463.725 181.754 467.709 181.317 468.037C181.117 468.919 180.936 469.764 180.783 470.567C182.38 469.638 185.877 468.057 189.948 469.014C190.879 467.778 191.656 466.434 192.257 464.981C192.35 464.753 192.434 464.526 192.523 464.297L192.522 464.301ZM189.323 469.802C184.986 468.983 181.332 471.24 180.56 471.763C180.266 473.433 180.069 474.908 179.936 476.207C183.893 474.664 187.031 472.52 189.323 469.802ZM212.054 460.837C212.509 460.193 213.285 458.853 213.143 457.904C213.12 457.766 213.077 457.646 213.015 457.529C211.609 458.716 210.309 460.152 209.129 461.819C210.1 461.469 211.078 461.144 212.056 460.833L212.054 460.837ZM213.718 456.96C213.873 457.199 213.978 457.465 214.02 457.768C214.16 458.665 213.755 459.679 213.344 460.44C214.068 460.224 214.789 460.021 215.507 459.826C216.059 458.926 217.242 456.718 216.749 455.072C215.688 455.591 214.677 456.223 213.713 456.959L213.718 456.96ZM217.574 454.696C218.122 456.316 217.368 458.269 216.715 459.511C217.577 459.29 218.428 459.085 219.272 458.892L219.248 458.865C219.274 458.841 221.905 456.447 221.722 453.487C221.27 453.563 220.813 453.651 220.358 453.763C219.4 453.996 218.468 454.308 217.574 454.696ZM228.797 457.156C230.117 456.296 231.618 455.011 231.883 454.225C230.58 453.861 229.147 453.556 227.631 453.385C227.203 455.386 225.901 456.872 224.871 457.779C226.247 457.539 227.562 457.331 228.8 457.161L228.797 457.156ZM229.399 458.419C228.2 458.583 226.921 458.778 225.582 459.006C227.078 459.423 229.129 460.497 231.073 463.163C231.789 462.627 232.512 462.051 233.232 461.423C232.279 460.135 230.298 458.924 229.399 458.419ZM233.9 460.83C234.974 459.857 236.055 458.784 237.146 457.607C235.748 457.705 233.543 457.891 230.828 458.233C231.837 458.87 233.114 459.804 233.9 460.83ZM226.734 453.296C225.402 453.194 224.019 453.199 222.614 453.364C222.783 455.596 221.601 457.497 220.729 458.574C221.523 458.402 222.309 458.247 223.077 458.101C223.111 458.083 226.029 456.258 226.73 453.294L226.734 453.296ZM218.492 460.444C219.824 461.442 222.217 463.695 222.761 467.331C223.731 467.092 224.709 466.767 225.688 466.344C224.27 461.618 221.1 460.191 220.55 459.975C219.87 460.121 219.186 460.28 218.492 460.444ZM232.726 454.474C232.442 455.321 231.533 456.213 230.666 456.908C233.536 456.549 235.84 456.356 237.247 456.261C236.191 455.745 234.623 455.062 232.726 454.474ZM230.351 463.688C227.106 459.241 223.613 459.367 223.462 459.386C222.956 459.482 222.445 459.582 221.926 459.689C223.257 460.509 225.378 462.327 226.504 465.969C227.774 465.361 229.057 464.602 230.351 463.688ZM221.884 467.528C221.301 463.469 218.092 461.213 217.33 460.731C216.155 461.029 214.964 461.349 213.777 461.703C215.035 462.5 217.055 464.298 217.509 467.742C217.875 467.78 218.254 467.808 218.64 467.815C219.71 467.84 220.792 467.739 221.888 467.529L221.884 467.528ZM216.586 467.617C215.979 463.804 213.235 462.358 212.587 462.066C211.249 462.485 209.919 462.94 208.602 463.441C209.775 464.609 212.531 466.927 216.584 467.622L216.586 467.617ZM219.789 434.929C219.832 434.835 219.875 434.74 219.914 434.645C220.353 433.641 220.768 432.639 221.167 431.646C220.363 430.526 217.896 427.344 214.532 425.255C215.407 428.591 217.163 431.825 219.79 434.925L219.789 434.929ZM236.553 416.963C232.098 416.388 226.674 421.429 225.871 422.205C225.521 423.39 225.138 424.589 224.734 425.814C226.803 424.335 231.486 421.358 236.321 420.8C236.496 419.579 236.576 418.301 236.553 416.963ZM227.953 407.061C227.85 404.966 226.874 399.652 224.704 398.588C223.669 399.629 222.577 400.815 221.495 402.13C225.148 404.037 226.729 407.81 227.393 410.283C227.605 409.167 227.79 408.094 227.955 407.057L227.953 407.061ZM214.257 424.069C217.779 426.006 220.408 429.134 221.556 430.668C221.889 429.813 222.205 428.968 222.51 428.128C222.309 427.216 221.092 423.672 213.967 418.359C213.79 420.289 213.885 422.195 214.257 424.069ZM214.089 417.341C220.034 421.694 222.205 424.972 222.992 426.772C223.314 425.845 223.62 424.926 223.913 424.017C223.549 422.514 221.963 418.016 215.353 412.422C214.77 414.003 214.33 415.646 214.089 417.341ZM224.384 422.499C224.873 420.894 225.312 419.33 225.707 417.803C225.692 417.729 224.031 410.65 217.911 407.153C217.073 408.544 216.319 410.011 215.69 411.541C221.351 416.268 223.541 420.247 224.384 422.499ZM226.079 416.335C226.398 415.037 226.683 413.776 226.938 412.552C226.787 411.418 225.753 405.259 220.916 402.844C220.039 403.951 219.185 405.136 218.382 406.397C223.261 409.19 225.327 414.012 226.073 416.338L226.079 416.335ZM229.122 408.181C230.287 407.031 232.197 405.513 234.322 405.312C233.85 403.901 233.302 402.449 232.683 400.952C231.31 401.305 230.211 402.816 229.821 403.415C229.64 404.886 229.406 406.48 229.123 408.177L229.122 408.181ZM228.835 409.811C228.588 411.163 228.306 412.58 227.982 414.044C229.709 412.605 232.831 410.451 235.807 410.717C235.499 409.259 235.099 407.749 234.608 406.189C231.966 406.31 229.503 409.022 228.84 409.812L228.835 409.811ZM227.645 415.537C227.264 417.157 226.836 418.837 226.347 420.563C228.391 418.806 232.657 415.649 236.523 416.058C236.453 414.645 236.276 413.172 235.987 411.636C232.665 411.142 228.819 414.437 227.641 415.536L227.645 415.537ZM225.356 397.939C227.147 399.068 227.966 402.205 228.335 404.484C228.947 399.986 229.135 396.519 229.189 394.537C228.321 395.232 226.941 396.395 225.355 397.943L225.356 397.939ZM230.021 401.702C230.61 401.062 231.4 400.403 232.331 400.125C231.768 398.813 231.146 397.464 230.471 396.089C230.399 397.556 230.267 399.458 230.025 401.703L230.021 401.702ZM236.169 421.719C230.354 422.504 224.624 426.99 224.221 427.314C223.883 428.279 223.531 429.254 223.155 430.235C225.018 429.081 228.436 427.694 233.315 428.559C233.725 427.985 234.107 427.365 234.456 426.702C235.256 425.178 235.823 423.513 236.165 421.718L236.169 421.719ZM220.758 436.03C220.758 436.03 228.564 434.479 232.709 429.362C227.2 428.542 223.715 430.828 222.567 431.754C222.126 432.869 221.659 433.996 221.164 435.132C221.035 435.433 220.892 435.73 220.758 436.03ZM185.934 488.317C186.987 488.505 188.093 488.719 189.252 488.972C191.839 487.891 192.561 485.116 192.764 483.666C190.244 484.665 187.963 486.223 185.932 488.321L185.934 488.317ZM212.217 494.042C216.404 493.695 218.865 490.334 219.849 488.76C218.224 487.803 216.477 486.865 214.643 486.011C213.911 487.785 211.993 491.443 208.058 493.371C209.463 493.616 210.854 493.843 212.217 494.042ZM214.316 494.337C216.396 494.617 218.389 494.847 220.236 495.032C223.361 494.433 224.909 493.182 225.557 492.485C224.127 491.457 222.465 490.334 220.623 489.217C219.734 490.667 217.713 493.309 214.317 494.333L214.316 494.337ZM222.739 495.274C225.756 495.543 228.223 495.689 229.804 495.769C229.016 495.112 227.815 494.145 226.288 493.022C225.753 493.623 224.676 494.562 222.739 495.274ZM214.352 495.693C217.885 498.292 218.919 501.065 219.182 502.033C220.549 501.533 221.937 500.937 223.336 500.242C223.072 499.218 222.198 497.246 219.034 496.254C217.547 496.096 215.976 495.907 214.352 495.693ZM212.297 495.407C210.781 495.188 209.229 494.94 207.661 494.663C211.463 498.12 212.406 502.098 212.642 503.687C214.507 503.434 216.411 502.983 218.342 502.335C218.117 501.486 216.962 498.166 212.296 495.411L212.297 495.407ZM205.863 494.33C204.21 494.013 202.543 493.665 200.893 493.279C204.304 497.002 204.57 502.336 204.584 503.489C206.905 503.941 209.293 504.04 211.741 503.793C211.484 502.169 210.39 497.752 205.858 494.333L205.863 494.33ZM198.818 491.385C203.833 490.074 205.61 484.841 206.084 483.012C204.07 482.561 202.036 482.3 200.017 482.305C199.469 484.27 198.013 488.537 195.272 490.421C195.967 490.607 196.674 490.796 197.405 491.002C197.874 491.132 198.348 491.259 198.822 491.386L198.818 491.385ZM193.708 483.316C193.596 484.589 193.072 487.63 190.586 489.266C191.681 489.514 192.831 489.797 194.03 490.105C196.841 488.84 198.44 484.49 199.074 482.337C199.003 482.339 198.928 482.339 198.858 482.341C197.048 482.443 195.332 482.77 193.708 483.316ZM190.144 490.535C191.011 492.104 190.631 493.873 190.101 494.989C191.49 496.485 193.174 498.039 195.162 499.421C195.409 497.541 195.762 493.051 192.928 491.199C191.965 490.959 191.04 490.736 190.144 490.535ZM206.95 483.217C206.483 485.025 204.841 489.866 200.4 491.783C202.402 492.272 204.432 492.7 206.449 493.077C210.922 491.511 213.072 487.433 213.821 485.633C211.616 484.651 209.302 483.81 206.95 483.217ZM228.834 497.058C227.034 496.958 224.483 496.785 221.465 496.502C223.174 497.564 223.872 498.894 224.152 499.835C225.697 499.031 227.256 498.105 228.838 497.06L228.834 497.058ZM203.473 503.245C203.541 503.266 203.618 503.276 203.687 503.292C203.624 501.751 203.123 496.06 199.131 492.844C198.429 492.666 197.73 492.479 197.041 492.291C196.099 492.029 195.194 491.784 194.312 491.555C196.698 494.123 196.247 498.429 195.991 499.975C198.157 501.373 200.652 502.551 203.473 503.245ZM189.44 494.254C189.817 493.287 190.147 491.605 188.819 490.244C187.856 490.037 186.931 489.856 186.042 489.694C186.72 490.785 187.853 492.445 189.436 494.253L189.44 494.254ZM155.606 506.38C156.872 506.288 160.064 505.728 161.325 502.475C158.25 502.472 155.006 502.834 151.6 503.664C152.868 504.581 154.205 505.487 155.606 506.38ZM190.76 522.978C191.684 522.95 194.61 522.696 196.384 520.599C194.746 518.653 192.719 516.499 190.329 514.373C186.732 518.038 183.588 519.126 181.736 519.425C184.967 520.759 188.027 521.952 190.764 522.98L190.76 522.978ZM189.846 524.098C187.323 523.15 184.541 522.07 181.609 520.871C182.398 522.57 183.225 525.531 182.604 529.934C185.479 530.09 188.493 529.975 191.616 529.535C191.801 527.019 190.574 525.041 189.846 524.098ZM180.292 520.326C178.243 519.472 176.133 518.562 174.004 517.604C174.816 519.338 175.783 522.889 174.407 528.717C176.716 529.287 179.156 529.687 181.708 529.874C182.454 524.65 181.049 521.553 180.293 520.321L180.292 520.326ZM173.042 515.646C174.521 515.466 178.363 514.374 181.615 508.062C179.613 506.92 177.426 505.864 175.064 504.984C173.079 510.877 169.838 512.645 167.809 513.156C169.543 514.015 171.294 514.848 173.042 515.646ZM160.617 510.945C161.53 513.275 162.654 517.729 160.577 522.408C162.286 523.652 164.212 524.813 166.33 525.833C168.011 519.529 166.039 514.89 165.282 513.434C163.704 512.627 162.143 511.797 160.617 510.945ZM159.317 510.209C158.169 509.553 157.049 508.886 155.955 508.205C156.328 509.986 156.389 512.946 153.65 515.218C155.039 517.475 157.14 519.769 159.842 521.85C162.016 516.706 160.052 511.752 159.314 510.204L159.317 510.209ZM160.441 509.271C161.063 509.313 164.603 509.262 165.805 502.741C164.651 502.605 163.473 502.519 162.269 502.489C161.192 505.66 158.538 506.744 156.765 507.105C157.958 507.84 159.184 508.562 160.441 509.271ZM166.69 502.854C165.754 508.01 163.33 509.547 161.728 509.989C163.266 510.835 164.836 511.663 166.429 512.465C167.669 512.426 171.852 511.742 174.224 504.679C171.874 503.864 169.362 503.227 166.691 502.85L166.69 502.854ZM187.369 511.913C185.883 510.761 184.217 509.605 182.391 508.515C179.63 513.853 176.466 515.672 174.43 516.279C176.345 517.143 180.101 518.745 180.101 518.745C180.146 518.75 184.362 519.158 189.654 513.787C188.924 513.157 188.159 512.529 187.367 511.917L187.369 511.913ZM196.962 521.299C195.685 522.751 193.958 523.387 192.603 523.666C196.125 524.964 198.963 525.939 200.703 526.52C200.006 525.354 198.746 523.486 196.961 521.304L196.962 521.299ZM191.295 524.641C191.969 525.787 192.618 527.429 192.516 529.4C194.902 529.018 197.348 528.444 199.846 527.653C197.911 527.006 194.928 525.987 191.29 524.64L191.295 524.641ZM173.545 528.499C175.311 520.993 172.985 517.487 172.603 516.968C170.598 516.048 168.583 515.088 166.587 514.092C167.519 516.302 168.692 520.612 167.152 526.212C169.131 527.11 171.274 527.885 173.545 528.499ZM153.2 514.435C156.03 511.986 155.279 508.735 154.855 507.517C153.392 506.581 151.986 505.627 150.665 504.655C150.65 506.528 150.956 510.361 153.2 514.435Z" fill="#0BCFD2" fill-opacity="0.6"/>
</g>
</svg>
